{
	"asset":{
		"generator":"Khronos glTF Blender I/O v4.3.47",
		"version":"2.0"
	},
	"scene":0,
	"scenes":[
		{
			"name":"Scene",
			"nodes":[
				0
			]
		}
	],
	"nodes":[
		{
			"mesh":0,
			"name":"Cube"
		}
	],
	"materials":[
		{
			"doubleSided":true,
			"name":"Material",
			"pbrMetallicRoughness":{
				"baseColorFactor":[
					1,
					0,
					0.0021293682511895895,
					1
				],
				"metallicFactor":0,
				"roughnessFactor":0
			}
		}
	],
	"meshes":[
		{
			"name":"Cube",
			"primitives":[
				{
					"attributes":{
						"POSITION":0,
						"NORMAL":1,
						"TEXCOORD_0":2
					},
					"indices":3,
					"material":0
				}
			]
		}
	],
	"accessors":[
		{
			"bufferView":0,
			"componentType":5126,
			"count":10368,
			"max":[
				1.0050499439239502,
				1.0050499439239502,
				1.0050499439239502
			],
			"min":[
				-1.0050499439239502,
				-1.0050499439239502,
				-1.0050499439239502
			],
			"type":"VEC3"
		},
		{
			"bufferView":1,
			"componentType":5126,
			"count":10368,
			"type":"VEC3"
		},
		{
			"bufferView":2,
			"componentType":5126,
			"count":10368,
			"type":"VEC2"
		},
		{
			"bufferView":3,
			"componentType":5123,
			"count":18432,
			"type":"SCALAR"
		}
	],
	"bufferViews":[
		{
			"buffer":0,
			"byteLength":124416,
			"byteOffset":0,
			"target":34962
		},
		{
			"buffer":0,
			"byteLength":124416,
			"byteOffset":124416,
			"target":34962
		},
		{
			"buffer":0,
			"byteLength":82944,
			"byteOffset":248832,
			"target":34962
		},
		{
			"buffer":0,
			"byteLength":36864,
			"byteOffset":331776,
			"target":34963
		}
	],
	"buffers":[
		{
			"byteLength":368640,
			"uri":"HologramSkybox.bin"
		}
	]
}
