<svg id="svg" version="1.1" xmlns="http://www.w3.org/2000/svg" xmlns:xlink="http://www.w3.org/1999/xlink" width="400" height="400" viewBox="0, 0, 400,400"><g id="svgg"><path id="path0" d="M132.800 65.797 L 132.800 73.195 103.100 73.297 L 73.400 73.400 73.291 80.695 L 73.182 87.990 58.491 88.095 L 43.800 88.200 43.692 96.309 L 43.583 104.419 58.692 104.223 C 67.001 104.115,77.130 103.886,81.200 103.713 L 88.600 103.400 88.800 96.200 L 89.000 89.000 118.400 88.800 L 147.800 88.600 148.023 81.400 C 148.146 77.440,148.281 74.154,148.323 74.097 C 148.366 74.041,161.675 74.041,177.900 74.097 L 207.400 74.200 207.600 81.400 L 207.800 88.600 229.800 88.800 L 251.800 89.000 252.000 96.200 L 252.200 103.400 266.800 103.600 L 281.400 103.800 281.600 111.000 L 281.800 118.200 296.400 118.400 L 311.000 118.600 311.200 125.800 L 311.400 133.000 326.000 133.000 L 340.600 133.000 340.800 125.800 L 341.000 118.600 348.705 118.600 L 356.410 118.600 356.305 103.400 L 356.200 88.200 348.200 88.200 L 340.200 88.200 340.091 95.491 L 339.982 102.782 332.691 102.891 L 325.400 103.000 325.291 110.300 L 325.182 117.600 318.600 117.600 L 312.018 117.600 311.909 110.300 L 311.800 103.000 297.100 102.895 L 282.400 102.790 282.400 96.028 C 282.400 92.308,282.291 88.981,282.157 88.633 C 281.942 88.072,280.245 88.000,267.157 88.000 L 252.400 88.000 252.400 80.600 L 252.400 73.200 230.200 73.200 L 208.000 73.200 208.000 65.800 L 208.000 58.400 170.400 58.400 L 132.800 58.400 132.800 65.797 M117.883 147.851 C 117.727 148.006,117.600 151.343,117.600 155.267 L 117.600 162.400 102.800 162.400 C 94.660 162.400,88.021 162.535,88.047 162.700 C 88.073 162.865,88.073 166.195,88.047 170.100 L 88.000 177.200 73.200 177.200 L 58.400 177.200 58.400 184.600 L 58.400 192.000 51.000 192.000 L 43.600 192.000 43.600 199.400 L 43.600 206.800 36.200 206.800 L 28.800 206.800 28.800 214.191 L 28.800 221.582 21.500 221.691 L 14.200 221.800 14.092 229.700 L 13.983 237.600 29.192 237.600 L 44.400 237.600 44.400 230.249 C 44.400 221.274,43.673 222.049,52.229 221.910 L 59.000 221.800 59.109 214.941 C 59.243 206.555,58.542 207.248,67.029 207.110 L 73.800 207.000 73.909 200.141 C 73.990 195.074,74.156 193.169,74.544 192.846 C 74.896 192.554,79.746 192.376,89.235 192.305 L 103.400 192.200 103.510 185.429 C 103.578 181.264,103.789 178.454,104.059 178.129 C 104.408 177.708,107.437 177.600,118.849 177.600 L 133.200 177.600 133.200 170.680 C 133.200 165.831,133.344 163.616,133.680 163.280 C 134.016 162.944,136.231 162.800,141.080 162.800 L 148.000 162.800 148.000 155.617 L 148.000 148.435 140.700 148.216 C 121.726 147.645,118.145 147.588,117.883 147.851 M355.796 178.091 C 355.672 178.591,355.623 181.970,355.686 185.600 L 355.800 192.200 363.509 192.309 L 371.218 192.417 371.109 184.909 L 371.000 177.400 363.510 177.291 L 356.020 177.182 355.796 178.091 M103.083 266.251 C 102.927 266.406,102.800 269.743,102.800 273.667 L 102.800 280.800 88.000 280.800 L 73.200 280.800 73.200 288.200 L 73.200 295.600 65.800 295.600 L 58.400 295.600 58.400 310.400 L 58.400 325.200 51.000 325.200 L 43.600 325.200 43.600 333.157 C 43.600 340.044,43.685 341.147,44.233 341.357 C 44.581 341.491,51.419 341.600,59.428 341.600 L 73.990 341.600 74.095 326.500 L 74.200 311.400 81.400 311.200 L 88.600 311.000 88.800 303.800 L 89.000 296.600 103.600 296.400 L 118.200 296.200 118.400 289.000 L 118.600 281.800 125.800 281.600 L 133.000 281.400 133.000 274.200 L 133.000 267.000 125.600 266.694 C 112.072 266.136,103.369 265.964,103.083 266.251 M370.643 266.633 C 370.041 268.202,370.382 281.108,371.033 281.357 C 371.381 281.491,374.606 281.600,378.200 281.600 C 386.896 281.600,386.000 282.524,386.000 273.557 L 386.000 266.000 378.443 266.000 C 371.921 266.000,370.852 266.087,370.643 266.633 " stroke="none" fill="#3454fc" fill-rule="evenodd"></path><path id="path1" d="M132.565 66.200 C 132.566 70.160,132.626 71.726,132.698 69.680 C 132.771 67.634,132.771 64.394,132.698 62.480 C 132.624 60.566,132.565 62.240,132.565 66.200 M148.323 74.097 C 148.281 74.154,148.146 77.440,148.023 81.400 L 147.800 88.600 118.400 88.800 L 89.000 89.000 88.800 96.200 L 88.600 103.400 81.400 103.600 C 72.328 103.852,73.200 102.978,73.200 111.824 L 73.200 119.200 95.400 119.200 L 117.600 119.200 117.600 126.600 L 117.600 134.000 125.000 134.000 L 132.400 134.000 132.400 140.736 L 132.400 147.472 133.419 147.936 C 134.064 148.230,136.925 148.400,141.219 148.400 L 148.000 148.400 148.000 155.600 L 148.000 162.800 141.080 162.800 C 132.479 162.800,133.200 162.079,133.200 170.680 L 133.200 177.600 118.849 177.600 C 107.437 177.600,104.408 177.708,104.059 178.129 C 103.789 178.454,103.578 181.264,103.510 185.429 L 103.400 192.200 89.235 192.305 C 79.746 192.376,74.896 192.554,74.544 192.846 C 74.156 193.169,73.990 195.074,73.909 200.141 L 73.800 207.000 66.941 207.109 C 58.555 207.243,59.248 206.542,59.110 215.029 L 59.000 221.800 52.229 221.910 C 43.673 222.049,44.400 221.274,44.400 230.249 L 44.400 237.600 66.200 237.600 L 88.000 237.600 88.000 245.000 L 88.000 252.400 102.800 252.400 L 117.600 252.400 117.600 259.176 C 117.600 267.330,116.760 266.549,125.800 266.800 L 133.000 267.000 133.000 274.200 L 133.000 281.400 125.800 281.600 L 118.600 281.800 118.400 289.000 L 118.200 296.200 103.600 296.400 L 89.000 296.600 88.800 303.800 L 88.600 311.000 81.400 311.200 L 74.200 311.400 74.095 326.500 L 73.990 341.600 95.786 341.600 L 117.582 341.600 117.691 348.900 L 117.800 356.200 214.900 356.301 L 312.000 356.402 312.000 349.001 L 312.000 341.600 319.400 341.600 L 326.800 341.600 326.800 334.200 L 326.800 326.800 334.200 326.800 L 341.600 326.800 341.600 312.000 L 341.600 297.200 363.800 297.200 L 386.000 297.200 386.001 289.300 L 386.001 281.400 379.136 281.527 C 375.360 281.597,371.842 281.547,371.318 281.415 L 370.366 281.176 370.597 273.688 C 370.725 269.570,370.914 249.599,371.018 229.309 L 371.208 192.417 363.504 192.309 L 355.800 192.200 355.910 184.800 C 355.971 180.730,356.061 164.170,356.110 148.000 L 356.200 118.600 348.600 118.600 L 341.000 118.600 340.800 125.800 L 340.600 133.000 326.000 133.000 L 311.400 133.000 311.200 125.800 L 311.000 118.600 296.400 118.400 L 281.800 118.200 281.600 111.000 L 281.400 103.800 266.800 103.600 L 252.200 103.400 252.000 96.200 L 251.800 89.000 229.800 88.800 L 207.800 88.600 207.600 81.400 L 207.400 74.200 177.900 74.097 C 161.675 74.041,148.366 74.041,148.323 74.097 " stroke="none" fill="#0424fc" fill-rule="evenodd"></path></g></svg>