<svg id="svg" version="1.1" xmlns="http://www.w3.org/2000/svg" xmlns:xlink="http://www.w3.org/1999/xlink" width="400" height="400" viewBox="0, 0, 400,400"><g id="svgg"><path id="path0" d="M162.856 0.429 C 162.336 0.637,160.626 1.001,159.056 1.239 C 157.485 1.477,155.840 1.810,155.400 1.980 C 153.450 2.734,151.667 3.200,150.738 3.200 C 150.186 3.200,149.603 3.330,149.444 3.489 C 149.285 3.648,147.950 4.086,146.477 4.463 C 141.226 5.804,140.191 6.099,139.505 6.447 C 139.123 6.641,138.369 6.800,137.829 6.800 C 137.289 6.800,136.736 6.980,136.600 7.200 C 136.464 7.420,135.949 7.600,135.456 7.600 C 134.963 7.600,134.389 7.757,134.180 7.949 C 133.971 8.140,132.720 8.624,131.400 9.024 C 130.080 9.424,128.410 10.077,127.688 10.476 C 126.966 10.874,126.117 11.200,125.801 11.200 C 125.486 11.200,124.546 11.495,123.714 11.855 C 122.881 12.216,121.840 12.644,121.400 12.807 C 120.960 12.970,118.564 14.115,116.074 15.352 C 113.585 16.588,111.222 17.600,110.823 17.600 C 110.424 17.600,109.871 17.874,109.593 18.208 C 109.316 18.542,107.422 19.626,105.386 20.617 C 103.349 21.608,101.478 22.665,101.229 22.965 C 100.979 23.266,99.925 23.904,98.887 24.383 C 96.400 25.530,95.360 26.131,94.471 26.936 C 94.067 27.301,93.554 27.600,93.330 27.600 C 93.107 27.600,92.598 27.960,92.200 28.400 C 91.802 28.840,91.262 29.200,91.000 29.200 C 90.738 29.200,90.202 29.555,89.809 29.990 C 89.416 30.424,88.713 30.899,88.247 31.046 C 87.337 31.332,86.058 32.234,83.630 34.300 C 82.790 35.015,81.980 35.600,81.830 35.600 C 81.680 35.600,80.294 36.635,78.749 37.900 C 77.205 39.165,75.423 40.488,74.790 40.840 C 73.399 41.613,70.881 43.697,67.053 47.242 C 65.484 48.695,63.669 50.315,63.020 50.842 C 60.861 52.595,58.000 55.306,58.000 55.598 C 58.000 55.756,55.390 58.563,52.200 61.834 C 49.010 65.106,46.392 67.967,46.382 68.191 C 46.372 68.416,45.563 69.410,44.585 70.400 C 43.607 71.390,42.805 72.433,42.803 72.717 C 42.801 73.002,42.035 74.082,41.100 75.117 C 40.165 76.153,39.220 77.290,39.000 77.644 C 37.924 79.376,36.965 80.698,36.077 81.674 C 35.539 82.265,34.897 83.113,34.650 83.558 C 34.402 84.002,33.075 86.005,31.700 88.007 C 30.325 90.010,29.200 91.795,29.200 91.975 C 29.200 92.155,28.922 92.533,28.581 92.816 C 28.241 93.098,27.509 94.287,26.956 95.457 C 26.402 96.627,25.791 97.682,25.598 97.801 C 25.404 97.921,24.395 99.733,23.355 101.828 C 22.316 103.922,21.334 105.717,21.174 105.816 C 20.642 106.145,18.400 110.756,18.400 111.522 C 18.400 111.937,18.040 112.602,17.600 113.000 C 17.160 113.398,16.800 113.961,16.800 114.251 C 16.800 114.542,16.170 116.073,15.400 117.656 C 14.630 119.238,14.000 120.767,14.000 121.054 C 14.000 121.341,13.640 122.217,13.200 123.000 C 12.760 123.783,12.399 124.644,12.398 124.912 C 12.397 125.180,11.947 126.286,11.398 127.368 C 10.849 128.450,10.400 129.668,10.400 130.073 C 10.400 130.479,10.224 131.123,10.008 131.505 C 9.446 132.503,7.600 138.450,7.600 139.265 C 7.600 139.643,7.420 140.064,7.200 140.200 C 6.980 140.336,6.800 140.889,6.800 141.429 C 6.800 141.969,6.641 142.723,6.447 143.105 C 6.004 143.977,5.321 146.514,4.465 150.469 C 4.099 152.157,3.665 153.672,3.500 153.836 C 3.335 153.999,3.200 154.916,3.200 155.872 C 3.200 156.828,3.038 157.923,2.839 158.305 C 2.157 159.617,1.546 162.204,1.210 165.200 C 1.025 166.850,0.681 168.920,0.446 169.800 C -0.287 172.545,-0.142 228.103,0.604 230.564 C 0.932 231.644,1.200 233.288,1.200 234.218 C 1.200 235.846,2.085 239.456,2.837 240.895 C 3.037 241.277,3.200 242.372,3.200 243.328 C 3.200 244.284,3.335 245.201,3.500 245.364 C 3.665 245.528,4.099 247.043,4.465 248.731 C 5.321 252.686,6.004 255.223,6.447 256.095 C 6.641 256.477,6.800 257.141,6.800 257.571 C 6.800 258.001,6.980 258.464,7.200 258.600 C 7.420 258.736,7.600 259.247,7.600 259.735 C 7.600 260.703,9.377 266.575,10.008 267.695 C 10.224 268.077,10.400 268.746,10.400 269.182 C 10.400 269.619,10.760 270.617,11.200 271.400 C 11.640 272.183,12.001 273.044,12.002 273.312 C 12.003 273.580,12.453 274.686,13.002 275.768 C 13.551 276.850,14.000 277.931,14.000 278.169 C 14.000 278.408,14.630 279.901,15.400 281.489 C 16.170 283.076,16.800 284.531,16.800 284.722 C 16.800 285.229,21.602 294.754,21.973 294.984 C 22.146 295.090,22.943 296.522,23.744 298.166 C 24.546 299.809,25.359 301.251,25.551 301.369 C 25.743 301.488,26.498 302.804,27.229 304.293 C 27.959 305.782,29.133 307.720,29.837 308.600 C 30.541 309.480,31.451 310.752,31.858 311.427 C 32.266 312.102,33.320 313.700,34.200 314.977 C 35.080 316.255,36.004 317.653,36.253 318.083 C 36.502 318.513,37.267 319.444,37.953 320.152 C 38.639 320.859,39.200 321.588,39.200 321.771 C 39.200 321.953,39.830 322.800,40.600 323.653 C 41.370 324.505,42.000 325.352,42.000 325.536 C 42.000 325.720,42.734 326.641,43.631 327.585 C 44.528 328.528,45.383 329.619,45.531 330.010 C 45.679 330.401,47.150 332.195,48.800 333.997 C 50.450 335.799,52.772 338.336,53.961 339.636 C 55.149 340.936,56.364 342.000,56.661 342.000 C 56.957 342.000,57.200 342.240,57.200 342.534 C 57.200 342.828,58.444 344.223,59.964 345.634 C 61.484 347.045,64.377 349.730,66.392 351.600 C 68.407 353.470,70.506 355.194,71.055 355.431 C 71.605 355.668,72.762 356.613,73.627 357.531 C 74.491 358.449,75.435 359.200,75.724 359.200 C 76.014 359.200,76.768 359.740,77.400 360.400 C 78.032 361.060,78.732 361.600,78.956 361.600 C 79.179 361.600,79.941 362.161,80.648 362.847 C 81.356 363.533,82.287 364.298,82.717 364.547 C 85.076 365.913,88.000 368.043,88.000 368.395 C 88.000 368.618,88.256 368.800,88.569 368.800 C 88.882 368.800,89.647 369.210,90.269 369.710 C 90.891 370.211,91.940 370.881,92.600 371.200 C 93.260 371.519,94.309 372.189,94.931 372.690 C 95.553 373.190,96.273 373.605,96.531 373.611 C 96.789 373.617,97.707 374.157,98.571 374.811 C 99.435 375.465,100.294 376.000,100.479 376.000 C 100.664 376.000,101.529 376.450,102.400 377.000 C 103.271 377.550,104.213 378.006,104.492 378.013 C 104.771 378.021,105.720 378.547,106.600 379.184 C 108.282 380.401,113.554 383.200,114.164 383.200 C 114.360 383.200,115.528 383.671,116.760 384.247 C 121.532 386.479,122.286 386.805,125.000 387.809 C 126.540 388.378,128.520 389.183,129.400 389.598 C 130.280 390.012,131.630 390.474,132.400 390.624 C 133.170 390.774,134.256 391.129,134.814 391.414 C 135.371 391.699,136.541 392.065,137.414 392.229 C 138.286 392.392,139.590 392.858,140.312 393.263 C 141.034 393.668,142.155 394.000,142.804 394.000 C 143.453 394.000,144.662 394.259,145.492 394.576 C 146.321 394.892,148.080 395.362,149.400 395.619 C 150.720 395.876,151.980 396.227,152.200 396.398 C 152.420 396.570,153.320 396.810,154.200 396.932 C 156.878 397.304,158.580 397.685,159.000 398.005 C 159.220 398.173,160.390 398.439,161.600 398.595 C 162.810 398.752,164.880 399.129,166.200 399.434 C 169.335 400.158,233.654 400.273,235.474 399.557 C 236.093 399.314,237.909 398.962,239.508 398.776 C 241.108 398.590,242.638 398.295,242.908 398.121 C 243.687 397.621,246.882 396.837,248.220 396.818 C 248.891 396.808,249.611 396.644,249.820 396.454 C 250.029 396.264,251.783 395.784,253.717 395.388 C 255.652 394.992,257.327 394.517,257.441 394.334 C 257.554 394.150,258.185 394.000,258.843 394.000 C 259.501 394.000,260.784 393.640,261.694 393.200 C 262.605 392.760,263.551 392.400,263.797 392.400 C 264.558 392.400,272.978 389.563,273.380 389.171 C 273.589 388.967,274.163 388.800,274.656 388.800 C 275.149 388.800,275.655 388.634,275.781 388.431 C 275.906 388.228,276.536 387.946,277.180 387.804 C 277.824 387.663,279.577 386.930,281.075 386.175 C 282.574 385.420,284.004 384.802,284.254 384.801 C 284.875 384.800,297.545 378.413,297.824 377.961 C 297.947 377.763,298.375 377.600,298.775 377.600 C 299.175 377.600,299.734 377.321,300.016 376.980 C 300.299 376.639,301.300 376.010,302.241 375.581 C 303.182 375.153,304.063 374.622,304.199 374.402 C 304.335 374.182,305.407 373.547,306.582 372.991 C 307.757 372.435,308.939 371.715,309.208 371.390 C 309.477 371.066,309.915 370.800,310.179 370.800 C 310.444 370.800,311.083 370.350,311.600 369.800 C 312.117 369.250,312.750 368.800,313.008 368.800 C 313.265 368.800,313.802 368.440,314.200 368.000 C 314.598 367.560,315.138 367.200,315.400 367.200 C 315.662 367.200,316.198 366.845,316.591 366.410 C 316.984 365.976,317.687 365.502,318.153 365.357 C 318.945 365.111,319.551 364.655,323.548 361.300 C 324.400 360.585,325.227 360.000,325.385 360.000 C 325.722 360.000,328.080 358.004,333.653 353.000 C 335.858 351.020,337.964 349.244,338.331 349.052 C 339.225 348.588,350.800 337.101,350.800 336.679 C 350.800 336.497,352.465 334.474,354.500 332.183 C 359.213 326.877,360.800 324.973,360.800 324.625 C 360.800 324.472,361.428 323.684,362.197 322.873 C 362.965 322.063,363.600 321.220,363.608 321.000 C 363.616 320.780,364.428 319.734,365.411 318.675 C 366.395 317.616,367.200 316.536,367.200 316.275 C 367.200 316.014,367.966 314.810,368.901 313.600 C 369.836 312.390,370.866 310.860,371.190 310.200 C 371.515 309.540,372.189 308.491,372.690 307.869 C 373.190 307.247,373.600 306.504,373.600 306.218 C 373.600 305.932,373.858 305.484,374.174 305.222 C 374.489 304.960,375.136 303.993,375.611 303.073 C 376.086 302.153,376.782 301.040,377.158 300.600 C 377.534 300.160,378.603 298.233,379.532 296.317 C 380.462 294.401,381.398 292.725,381.612 292.593 C 382.007 292.349,383.600 289.101,383.600 288.540 C 383.600 288.373,384.408 286.577,385.395 284.548 C 386.382 282.519,387.574 279.811,388.044 278.529 C 388.514 277.248,389.057 276.029,389.249 275.820 C 389.442 275.611,389.600 275.037,389.600 274.544 C 389.600 274.051,389.766 273.545,389.969 273.419 C 390.172 273.294,390.459 272.641,390.607 271.968 C 390.755 271.296,391.127 270.263,391.436 269.673 C 391.744 269.083,392.099 267.970,392.226 267.200 C 392.352 266.430,392.781 265.170,393.179 264.400 C 393.577 263.630,394.030 262.280,394.187 261.400 C 394.343 260.520,394.606 259.620,394.770 259.400 C 394.934 259.180,395.290 257.968,395.561 256.707 C 395.832 255.446,396.222 254.310,396.427 254.183 C 396.632 254.056,396.800 253.372,396.800 252.663 C 396.800 251.953,397.152 250.370,397.583 249.144 C 398.014 247.919,398.556 245.725,398.789 244.268 C 399.022 242.812,399.389 241.154,399.606 240.584 C 399.855 239.929,400.000 224.902,400.000 199.740 C 400.000 156.797,400.131 159.833,397.921 151.600 C 397.478 149.950,397.033 147.970,396.933 147.200 C 396.832 146.430,396.584 145.440,396.380 145.000 C 396.177 144.560,395.718 143.120,395.361 141.800 C 393.981 136.701,393.649 135.656,393.035 134.468 C 392.686 133.792,392.400 132.965,392.400 132.629 C 392.400 132.293,391.758 130.260,390.972 128.109 C 389.471 123.998,389.271 123.489,388.241 121.140 C 387.888 120.336,387.600 119.554,387.600 119.402 C 387.600 119.250,386.610 117.096,385.400 114.617 C 384.190 112.138,383.200 109.837,383.200 109.504 C 383.200 109.171,382.938 108.680,382.617 108.414 C 382.297 108.149,381.273 106.371,380.342 104.465 C 379.411 102.559,378.384 100.684,378.060 100.297 C 377.358 99.459,376.734 98.375,375.675 96.152 C 375.244 95.245,374.706 94.389,374.480 94.249 C 374.254 94.110,373.678 93.187,373.199 92.198 C 372.720 91.209,372.165 90.400,371.964 90.400 C 371.764 90.400,371.600 90.152,371.600 89.849 C 371.600 89.546,371.333 89.076,371.006 88.805 C 370.680 88.534,370.005 87.478,369.506 86.459 C 369.008 85.440,368.105 84.184,367.500 83.668 C 366.895 83.151,366.400 82.475,366.400 82.166 C 366.400 81.856,365.770 80.905,365.000 80.053 C 364.230 79.200,363.600 78.353,363.600 78.171 C 363.600 77.988,363.039 77.259,362.353 76.552 C 361.667 75.844,360.902 74.909,360.653 74.473 C 360.212 73.701,356.475 69.177,354.019 66.442 C 353.349 65.695,352.800 64.879,352.800 64.630 C 352.800 63.925,335.839 47.200,335.124 47.200 C 334.775 47.200,334.065 46.662,333.545 46.004 C 333.025 45.346,332.436 44.806,332.234 44.804 C 332.033 44.802,330.654 43.720,329.169 42.400 C 327.683 41.080,326.353 40.000,326.212 40.000 C 326.072 40.000,325.381 39.461,324.678 38.802 C 323.975 38.143,323.285 37.603,323.144 37.602 C 323.003 37.601,322.193 36.974,321.344 36.209 C 320.495 35.444,319.639 34.814,319.441 34.809 C 319.244 34.804,318.344 34.202,317.441 33.471 C 316.539 32.739,315.530 32.019,315.200 31.871 C 314.870 31.722,313.790 30.971,312.800 30.202 C 311.810 29.432,310.612 28.634,310.139 28.426 C 309.665 28.219,309.153 27.848,309.001 27.602 C 308.849 27.356,307.780 26.723,306.626 26.195 C 305.471 25.667,304.296 24.957,304.014 24.617 C 303.733 24.278,303.341 24.000,303.143 24.000 C 302.946 24.000,302.071 23.550,301.200 23.000 C 300.329 22.450,299.344 22.000,299.011 22.000 C 298.679 22.000,298.182 21.640,297.907 21.200 C 297.632 20.760,297.177 20.400,296.896 20.400 C 296.614 20.400,295.713 19.985,294.892 19.478 C 292.671 18.106,285.584 14.800,284.863 14.800 C 284.653 14.800,283.455 14.260,282.200 13.600 C 280.945 12.940,279.712 12.399,279.459 12.398 C 279.207 12.397,278.114 11.947,277.032 11.398 C 275.950 10.849,274.822 10.400,274.527 10.400 C 274.231 10.400,273.677 10.241,273.295 10.047 C 271.879 9.328,268.156 8.005,266.800 7.740 C 266.030 7.589,264.810 7.136,264.088 6.733 C 263.366 6.330,262.374 6.000,261.882 6.000 C 261.391 6.000,260.004 5.640,258.800 5.200 C 257.596 4.760,256.249 4.399,255.806 4.398 C 255.363 4.396,254.484 4.126,253.854 3.798 C 253.224 3.469,251.930 3.200,250.978 3.200 C 250.026 3.200,249.136 3.020,249.000 2.800 C 248.864 2.580,248.349 2.400,247.856 2.400 C 247.363 2.400,246.781 2.221,246.562 2.002 C 246.344 1.784,245.003 1.487,243.582 1.342 C 242.162 1.197,240.302 0.836,239.450 0.539 C 237.568 -0.115,164.478 -0.221,162.856 0.429 M220.800 16.184 C 301.585 25.751,365.734 84.022,381.764 162.400 C 405.172 276.849,317.823 384.019,201.149 383.998 C 81.570 383.978,-6.046 272.573,21.836 156.000 C 43.146 66.910,130.541 5.496,220.800 16.184 M191.898 47.626 C 96.920 53.336,30.061 144.656,53.371 236.835 C 73.042 314.625,150.274 364.167,228.800 349.368 C 312.532 333.587,367.029 252.973,350.365 169.548 C 335.528 95.273,267.677 43.069,191.898 47.626 M218.536 62.188 C 315.974 74.422,370.291 183.268,321.367 268.250 C 266.412 363.710,127.334 360.388,77.628 262.428 C 27.474 163.584,108.544 48.377,218.536 62.188 M185.000 96.772 C 178.273 97.719,167.577 100.368,163.000 102.219 C 150.447 107.298,133.898 116.830,125.800 123.646 C 124.040 125.127,121.430 127.310,120.000 128.496 C 110.502 136.373,100.487 152.521,93.922 170.544 C 86.836 189.997,85.792 206.449,90.410 225.867 C 97.437 255.416,109.115 273.410,130.693 287.941 C 149.981 300.931,189.277 306.898,211.390 300.195 C 237.465 292.291,258.633 276.239,267.823 257.400 C 272.007 248.823,273.043 244.673,274.404 231.038 C 274.972 225.354,273.385 211.159,271.002 200.600 C 270.704 199.280,270.342 197.300,270.196 196.200 C 266.314 166.806,245.535 143.713,217.509 137.644 C 189.914 131.670,177.516 133.621,157.200 147.136 C 128.999 165.897,119.079 200.594,132.402 233.869 C 145.245 265.944,185.797 274.508,220.000 252.370 C 231.777 244.747,235.787 236.529,235.796 220.000 C 235.806 200.055,229.345 185.896,216.908 178.607 C 203.876 170.970,184.869 169.315,175.435 174.996 C 152.752 188.655,155.135 222.473,179.200 228.440 C 192.049 231.627,201.604 228.740,201.599 221.674 C 201.595 216.892,199.953 216.010,190.753 215.844 C 180.313 215.657,178.238 214.765,175.496 209.283 C 171.865 202.024,173.549 194.615,180.107 189.001 C 189.561 180.909,210.368 187.275,216.606 200.169 C 221.593 210.478,222.368 227.441,218.181 234.652 C 212.104 245.121,186.921 253.844,172.624 250.432 C 157.510 246.826,145.209 234.679,142.410 220.600 C 142.147 219.280,141.687 217.300,141.387 216.200 C 138.619 206.039,140.216 191.504,145.185 181.634 C 150.874 170.332,156.379 164.107,165.848 158.266 C 195.294 140.103,232.665 150.568,248.467 181.400 C 255.442 195.009,260.842 228.943,257.852 240.374 C 253.041 258.768,240.325 271.671,217.257 281.565 C 207.086 285.928,201.579 287.139,190.344 287.485 C 145.837 288.858,115.846 267.991,106.860 229.400 C 106.399 227.420,105.554 223.820,104.983 221.400 C 101.957 208.578,103.370 184.075,107.744 173.508 C 118.984 146.354,134.730 129.877,161.744 116.998 C 171.100 112.538,187.792 109.079,194.708 110.167 C 195.528 110.296,199.237 110.577,202.949 110.790 C 206.660 111.004,211.160 111.440,212.949 111.759 C 214.737 112.078,217.550 112.518,219.200 112.737 C 239.974 115.486,258.522 125.035,269.332 138.548 C 282.760 155.332,288.345 164.699,291.565 175.831 C 292.197 178.014,293.438 181.814,294.324 184.275 C 295.210 186.737,296.237 190.157,296.608 191.875 C 298.674 201.465,300.531 204.518,305.105 205.848 C 312.387 207.965,315.510 201.796,312.824 190.600 C 312.349 188.620,311.427 184.300,310.776 181.000 C 308.096 167.412,298.848 148.919,286.095 131.646 C 272.224 112.858,242.724 99.348,210.418 96.990 C 196.894 96.003,190.831 95.951,185.000 96.772 " stroke="none" fill="#f9f9f8" fill-rule="evenodd"></path><path id="path1" d="M189.600 33.848 C 188.830 33.939,185.860 34.293,183.000 34.633 C 134.569 40.398,93.814 64.368,65.615 103.675 C 19.494 167.960,26.484 258.613,81.935 315.355 C 140.323 375.103,233.065 382.454,300.400 332.671 C 373.839 278.376,388.887 173.304,333.742 99.870 C 302.609 58.412,254.883 34.332,202.800 33.802 C 196.310 33.737,190.370 33.757,189.600 33.848 M209.800 47.602 C 301.793 53.341,367.537 137.384,350.763 227.800 C 334.807 313.804,248.262 368.954,163.400 347.197 C 86.540 327.491,37.677 252.177,50.972 173.909 C 63.896 97.827,133.072 42.815,209.800 47.602 " stroke="none" fill="#fb8606" fill-rule="evenodd"></path><path id="path2" d="M187.400 15.607 C 72.576 24.695,-5.792 133.931,22.400 245.600 C 40.268 316.374,100.840 371.224,173.000 381.971 C 300.364 400.939,407.504 288.253,381.764 162.400 C 363.299 72.115,278.890 8.365,187.400 15.607 M220.400 17.775 C 327.612 29.432,401.496 130.054,380.367 235.633 C 360.348 335.663,261.848 400.035,162.000 378.341 C 96.007 364.003,42.657 313.497,24.787 248.445 C -1.714 151.969,55.264 50.093,150.400 23.854 C 162.660 20.472,173.345 18.478,183.809 17.620 C 186.664 17.386,189.720 17.123,190.600 17.036 C 194.061 16.694,215.302 17.221,220.400 17.775 M193.000 31.830 C 192.120 31.916,189.150 32.180,186.400 32.418 C 166.985 34.091,142.364 41.104,125.071 49.884 C 28.713 98.813,3.188 225.743,73.097 308.342 C 108.835 350.567,166.603 373.374,220.147 366.397 C 298.876 356.139,356.498 299.152,367.595 220.573 C 377.538 150.173,337.264 77.342,271.793 47.326 C 248.550 36.670,213.681 29.813,193.000 31.830 M220.400 34.726 C 240.256 37.475,259.553 43.190,275.000 50.894 C 364.467 95.518,394.606 208.946,339.064 292.000 C 295.195 357.599,211.475 382.994,137.600 353.109 C 49.149 317.328,9.639 211.219,52.674 125.033 C 77.639 75.038,126.129 41.402,183.000 34.633 C 185.860 34.293,188.830 33.939,189.600 33.848 C 193.750 33.357,214.858 33.958,220.400 34.726 M194.800 61.264 C 89.588 65.743,27.518 183.837,83.558 272.909 C 139.454 361.751,269.001 359.213,321.367 268.250 C 375.495 174.228,303.588 56.632,194.800 61.264 M221.200 64.123 C 334.149 82.261,377.589 218.781,295.755 298.427 C 233.812 358.714,130.622 345.695,84.715 271.800 C 30.774 184.972,86.933 73.410,189.800 63.047 C 195.401 62.483,215.213 63.162,221.200 64.123 M189.600 94.663 C 180.276 95.592,168.261 98.292,162.200 100.821 C 149.073 106.296,131.733 116.265,125.470 121.936 C 124.329 122.970,121.936 124.926,120.152 126.284 C 115.956 129.478,110.166 136.133,105.430 143.205 C 99.647 151.840,89.575 175.182,88.600 182.207 C 88.448 183.303,88.087 185.035,87.797 186.055 C 85.136 195.421,85.568 212.854,88.787 226.001 C 97.788 262.760,115.174 284.916,144.044 296.418 C 151.601 299.428,164.623 302.653,173.851 303.798 C 199.856 307.027,219.731 302.114,243.400 286.606 C 266.112 271.726,278.929 246.059,275.851 221.625 C 275.503 218.861,275.113 215.520,274.985 214.200 C 274.857 212.880,274.500 210.450,274.191 208.800 C 273.882 207.150,273.150 203.190,272.565 200.000 C 267.368 171.688,259.454 158.402,239.883 145.137 C 229.076 137.812,212.626 133.393,194.366 132.909 C 182.876 132.604,179.076 133.492,168.060 139.056 C 129.635 158.464,115.743 193.996,130.860 234.201 C 144.036 269.242,193.469 277.247,226.279 249.651 C 242.387 236.103,241.420 199.350,224.515 182.594 C 212.513 170.697,187.349 166.083,174.845 173.487 C 151.054 187.575,153.241 223.321,178.293 229.863 C 192.592 233.597,203.200 230.166,203.200 221.809 C 203.200 215.780,200.774 214.286,190.842 214.197 C 179.852 214.099,177.457 212.593,175.386 204.479 C 173.948 198.843,178.153 191.148,184.329 188.115 C 191.318 184.683,207.317 189.580,212.855 196.847 C 219.109 205.052,221.440 224.889,217.141 233.315 C 213.266 240.911,195.984 248.929,182.297 249.481 C 164.851 250.184,148.700 238.542,144.453 222.200 C 138.752 200.263,142.086 184.926,156.385 167.311 C 158.654 164.516,169.556 157.354,175.000 155.082 C 189.344 149.097,207.027 149.486,220.148 156.076 C 230.427 161.239,237.780 167.738,244.273 177.400 C 252.612 189.809,259.698 226.101,256.418 239.600 C 252.012 257.731,238.952 270.790,215.436 280.579 C 184.875 293.301,140.991 283.481,122.712 259.831 C 114.603 249.338,110.922 240.600,106.819 222.102 L 105.200 214.805 105.200 203.195 C 105.200 185.265,106.260 180.123,112.789 166.381 C 123.209 144.452,137.370 130.661,161.638 118.809 C 171.040 114.218,187.830 110.639,194.768 111.748 C 195.624 111.885,199.280 112.176,202.890 112.393 C 206.501 112.611,210.882 113.048,212.627 113.363 C 214.372 113.679,216.852 114.057,218.139 114.202 C 230.264 115.576,248.282 122.157,256.193 128.101 C 269.453 138.066,285.341 160.613,289.943 176.000 C 290.832 178.970,292.197 183.161,292.977 185.313 C 293.757 187.466,294.831 191.156,295.364 193.513 C 297.378 202.422,299.770 206.013,304.632 207.427 C 312.277 209.649,316.843 203.770,315.060 194.000 C 311.514 174.566,310.363 170.735,304.601 159.193 C 299.006 147.984,294.740 140.927,287.316 130.600 C 275.281 113.857,246.808 99.620,218.200 96.038 C 211.918 95.252,192.876 94.336,189.600 94.663 M210.418 96.990 C 242.724 99.348,272.224 112.858,286.095 131.646 C 298.848 148.919,308.096 167.412,310.776 181.000 C 311.427 184.300,312.349 188.620,312.824 190.600 C 315.510 201.796,312.387 207.965,305.105 205.848 C 300.531 204.518,298.674 201.465,296.608 191.875 C 296.237 190.157,295.210 186.737,294.324 184.275 C 293.438 181.814,292.197 178.014,291.565 175.831 C 288.345 164.699,282.760 155.332,269.332 138.548 C 258.522 125.035,239.974 115.486,219.200 112.737 C 217.550 112.518,214.737 112.078,212.949 111.759 C 211.160 111.440,206.660 111.004,202.949 110.790 C 199.237 110.577,195.528 110.296,194.708 110.167 C 187.792 109.079,171.100 112.538,161.744 116.998 C 134.730 129.877,118.984 146.354,107.744 173.508 C 103.370 184.075,101.957 208.578,104.983 221.400 C 105.554 223.820,106.399 227.420,106.860 229.400 C 115.846 267.991,145.837 288.858,190.344 287.485 C 213.422 286.774,238.347 274.277,249.752 257.701 C 258.651 244.767,260.517 232.612,256.949 210.800 C 252.746 185.098,244.275 169.783,228.355 159.098 C 206.838 144.657,182.889 145.751,159.800 162.229 C 153.857 166.471,145.716 178.753,142.252 188.705 C 139.880 195.520,139.453 209.100,141.387 216.200 C 141.687 217.300,142.147 219.280,142.410 220.600 C 145.209 234.679,157.510 246.826,172.624 250.432 C 186.921 253.844,212.104 245.121,218.181 234.652 C 222.368 227.441,221.593 210.478,216.606 200.169 C 210.368 187.275,189.561 180.909,180.107 189.001 C 173.549 194.615,171.865 202.024,175.496 209.283 C 178.238 214.765,180.313 215.657,190.753 215.844 C 199.953 216.010,201.595 216.892,201.599 221.674 C 201.604 228.740,192.049 231.627,179.200 228.440 C 155.135 222.473,152.752 188.655,175.435 174.996 C 184.869 169.315,203.876 170.970,216.908 178.607 C 229.345 185.896,235.806 200.055,235.796 220.000 C 235.787 236.529,231.777 244.747,220.000 252.370 C 185.797 274.508,145.245 265.944,132.402 233.869 C 119.079 200.594,128.999 165.897,157.200 147.136 C 177.516 133.621,189.914 131.670,217.509 137.644 C 245.535 143.713,266.314 166.806,270.196 196.200 C 270.342 197.300,270.704 199.280,271.002 200.600 C 273.385 211.159,274.972 225.354,274.404 231.038 C 273.043 244.673,272.007 248.823,267.823 257.400 C 258.633 276.239,237.465 292.291,211.390 300.195 C 189.277 306.898,149.981 300.931,130.693 287.941 C 109.115 273.410,97.437 255.416,90.410 225.867 C 85.792 206.449,86.836 189.997,93.922 170.544 C 100.487 152.521,110.502 136.373,120.000 128.496 C 121.430 127.310,124.040 125.127,125.800 123.646 C 137.646 113.675,158.974 102.645,173.200 99.134 C 186.159 95.934,191.637 95.619,210.418 96.990 " stroke="none" fill="#a36228" fill-rule="evenodd"></path><path id="path3" d="M190.600 17.036 C 189.720 17.123,186.664 17.386,183.809 17.620 C 173.345 18.478,162.660 20.472,150.400 23.854 C 130.882 29.237,108.616 40.288,91.800 52.938 C -8.339 128.271,-5.821 277.857,96.800 349.905 C 143.220 382.495,204.388 391.287,258.800 373.189 C 321.028 352.492,367.505 299.902,380.367 235.633 C 401.496 130.054,327.612 29.432,220.400 17.775 C 215.302 17.221,194.061 16.694,190.600 17.036 M217.600 32.567 C 302.134 42.314,364.617 108.222,368.792 192.046 C 372.227 261.024,331.032 326.754,267.328 353.940 C 199.741 382.782,120.321 364.137,73.097 308.342 C 24.849 251.336,20.029 168.620,61.341 106.600 C 89.460 64.386,136.034 36.760,186.400 32.418 C 189.150 32.180,192.120 31.916,193.000 31.830 C 196.245 31.514,212.755 32.008,217.600 32.567 M189.800 63.047 C 78.997 74.210,25.506 200.477,95.179 286.400 C 145.144 348.018,239.018 353.647,295.755 298.427 C 366.569 229.507,345.425 113.358,254.831 73.619 C 236.650 65.643,208.865 61.127,189.800 63.047 M208.400 95.232 C 241.874 97.291,273.590 111.505,287.316 130.600 C 294.740 140.927,299.006 147.984,304.601 159.193 C 310.363 170.735,311.514 174.566,315.060 194.000 C 316.843 203.770,312.277 209.649,304.632 207.427 C 299.770 206.013,297.378 202.422,295.364 193.513 C 294.831 191.156,293.757 187.466,292.977 185.313 C 292.197 183.161,290.832 178.970,289.943 176.000 C 285.341 160.613,269.453 138.066,256.193 128.101 C 248.282 122.157,230.264 115.576,218.139 114.202 C 216.852 114.057,214.372 113.679,212.627 113.363 C 210.882 113.048,206.501 112.611,202.890 112.393 C 199.280 112.176,195.624 111.885,194.768 111.748 C 187.830 110.639,171.040 114.218,161.638 118.809 C 137.370 130.661,123.209 144.452,112.789 166.381 C 106.260 180.123,105.200 185.265,105.200 203.195 L 105.200 214.805 106.819 222.102 C 110.922 240.600,114.603 249.338,122.712 259.831 C 140.991 283.481,184.875 293.301,215.436 280.579 C 238.952 270.790,252.012 257.731,256.418 239.600 C 259.100 228.562,253.641 194.848,247.123 182.200 C 233.440 155.650,201.984 143.822,175.000 155.082 C 169.556 157.354,158.654 164.516,156.385 167.311 C 142.086 184.926,138.752 200.263,144.453 222.200 C 148.700 238.542,164.851 250.184,182.297 249.481 C 195.984 248.929,213.266 240.911,217.141 233.315 C 221.440 224.889,219.109 205.052,212.855 196.847 C 207.317 189.580,191.318 184.683,184.329 188.115 C 178.153 191.148,173.948 198.843,175.386 204.479 C 177.457 212.593,179.852 214.099,190.842 214.197 C 200.774 214.286,203.200 215.780,203.200 221.809 C 203.200 230.166,192.592 233.597,178.293 229.863 C 159.636 224.991,152.166 202.389,163.306 184.513 C 169.286 174.916,178.163 170.194,190.200 170.208 C 220.170 170.243,237.600 188.517,237.600 219.905 C 237.600 239.620,231.276 249.153,211.815 258.776 C 178.823 275.090,142.036 263.922,130.860 234.201 C 117.562 198.835,127.295 165.201,156.460 145.736 C 162.037 142.014,173.126 136.229,177.225 134.904 C 193.593 129.610,224.397 134.641,239.883 145.137 C 259.454 158.402,267.368 171.688,272.565 200.000 C 273.150 203.190,273.882 207.150,274.191 208.800 C 274.500 210.450,274.857 212.880,274.985 214.200 C 275.113 215.520,275.503 218.861,275.851 221.625 C 278.929 246.059,266.112 271.726,243.400 286.606 C 219.731 302.114,199.856 307.027,173.851 303.798 C 164.623 302.653,151.601 299.428,144.044 296.418 C 115.174 284.916,97.788 262.760,88.787 226.001 C 85.568 212.854,85.136 195.421,87.797 186.055 C 88.087 185.035,88.448 183.303,88.600 182.207 C 89.575 175.182,99.647 151.840,105.430 143.205 C 110.166 136.133,115.956 129.478,120.152 126.284 C 121.936 124.926,124.329 122.970,125.470 121.936 C 131.733 116.265,149.073 106.296,162.200 100.821 C 168.261 98.292,180.276 95.592,189.600 94.663 C 191.515 94.472,200.432 94.742,208.400 95.232 " stroke="none" fill="#040404" fill-rule="evenodd"></path></g></svg>