<svg id="svg" version="1.1" xmlns="http://www.w3.org/2000/svg" xmlns:xlink="http://www.w3.org/1999/xlink" width="400" height="400" viewBox="0, 0, 400,400"><g id="svgg"><path id="path0" d="M162.856 0.429 C 162.336 0.637,160.626 1.001,159.056 1.239 C 157.485 1.477,155.840 1.810,155.400 1.980 C 153.450 2.734,151.667 3.200,150.738 3.200 C 150.186 3.200,149.603 3.330,149.444 3.489 C 149.285 3.648,147.950 4.086,146.477 4.463 C 141.226 5.804,140.191 6.099,139.505 6.447 C 139.123 6.641,138.369 6.800,137.829 6.800 C 137.289 6.800,136.736 6.980,136.600 7.200 C 136.464 7.420,135.949 7.600,135.456 7.600 C 134.963 7.600,134.389 7.757,134.180 7.949 C 133.971 8.140,132.720 8.624,131.400 9.024 C 130.080 9.424,128.410 10.077,127.688 10.476 C 126.966 10.874,126.117 11.200,125.801 11.200 C 125.486 11.200,124.546 11.495,123.714 11.855 C 122.881 12.216,121.840 12.644,121.400 12.807 C 120.960 12.970,118.564 14.115,116.074 15.352 C 113.585 16.588,111.222 17.600,110.823 17.600 C 110.424 17.600,109.871 17.874,109.593 18.208 C 109.316 18.542,107.422 19.626,105.386 20.617 C 103.349 21.608,101.478 22.665,101.229 22.965 C 100.979 23.266,99.925 23.904,98.887 24.383 C 96.400 25.530,95.360 26.131,94.471 26.936 C 94.067 27.301,93.554 27.600,93.330 27.600 C 93.107 27.600,92.598 27.960,92.200 28.400 C 91.802 28.840,91.262 29.200,91.000 29.200 C 90.738 29.200,90.202 29.555,89.809 29.990 C 89.416 30.424,88.713 30.899,88.247 31.046 C 87.337 31.332,86.058 32.234,83.630 34.300 C 82.790 35.015,81.980 35.600,81.830 35.600 C 81.680 35.600,80.294 36.635,78.749 37.900 C 77.205 39.165,75.423 40.488,74.790 40.840 C 73.399 41.613,70.881 43.697,67.053 47.242 C 65.484 48.695,63.669 50.315,63.020 50.842 C 60.861 52.595,58.000 55.306,58.000 55.598 C 58.000 55.756,55.390 58.563,52.200 61.834 C 49.010 65.106,46.392 67.967,46.382 68.191 C 46.372 68.416,45.563 69.410,44.585 70.400 C 43.607 71.390,42.805 72.433,42.803 72.717 C 42.801 73.002,42.035 74.082,41.100 75.117 C 40.165 76.153,39.220 77.290,39.000 77.644 C 37.924 79.376,36.965 80.698,36.077 81.674 C 35.539 82.265,34.897 83.113,34.650 83.558 C 34.402 84.002,33.075 86.005,31.700 88.007 C 30.325 90.010,29.200 91.795,29.200 91.975 C 29.200 92.155,28.922 92.533,28.581 92.816 C 28.241 93.098,27.509 94.287,26.956 95.457 C 26.402 96.627,25.791 97.682,25.598 97.801 C 25.404 97.921,24.395 99.733,23.355 101.828 C 22.316 103.922,21.334 105.717,21.174 105.816 C 20.642 106.145,18.400 110.756,18.400 111.522 C 18.400 111.937,18.040 112.602,17.600 113.000 C 17.160 113.398,16.800 113.961,16.800 114.251 C 16.800 114.542,16.170 116.073,15.400 117.656 C 14.630 119.238,14.000 120.767,14.000 121.054 C 14.000 121.341,13.640 122.217,13.200 123.000 C 12.760 123.783,12.399 124.644,12.398 124.912 C 12.397 125.180,11.947 126.286,11.398 127.368 C 10.849 128.450,10.400 129.668,10.400 130.073 C 10.400 130.479,10.224 131.123,10.008 131.505 C 9.446 132.503,7.600 138.450,7.600 139.265 C 7.600 139.643,7.420 140.064,7.200 140.200 C 6.980 140.336,6.800 140.889,6.800 141.429 C 6.800 141.969,6.641 142.723,6.447 143.105 C 6.004 143.977,5.321 146.514,4.465 150.469 C 4.099 152.157,3.665 153.672,3.500 153.836 C 3.335 153.999,3.200 154.916,3.200 155.872 C 3.200 156.828,3.038 157.923,2.839 158.305 C 2.157 159.617,1.546 162.204,1.210 165.200 C 1.025 166.850,0.681 168.920,0.446 169.800 C -0.287 172.545,-0.142 228.103,0.604 230.564 C 0.932 231.644,1.200 233.288,1.200 234.218 C 1.200 235.846,2.085 239.456,2.837 240.895 C 3.037 241.277,3.200 242.372,3.200 243.328 C 3.200 244.284,3.335 245.201,3.500 245.364 C 3.665 245.528,4.099 247.043,4.465 248.731 C 5.321 252.686,6.004 255.223,6.447 256.095 C 6.641 256.477,6.800 257.141,6.800 257.571 C 6.800 258.001,6.980 258.464,7.200 258.600 C 7.420 258.736,7.600 259.247,7.600 259.735 C 7.600 260.703,9.377 266.575,10.008 267.695 C 10.224 268.077,10.400 268.746,10.400 269.182 C 10.400 269.619,10.760 270.617,11.200 271.400 C 11.640 272.183,12.001 273.044,12.002 273.312 C 12.003 273.580,12.453 274.686,13.002 275.768 C 13.551 276.850,14.000 277.931,14.000 278.169 C 14.000 278.408,14.630 279.901,15.400 281.489 C 16.170 283.076,16.800 284.531,16.800 284.722 C 16.800 285.229,21.602 294.754,21.973 294.984 C 22.146 295.090,22.943 296.522,23.744 298.166 C 24.546 299.809,25.359 301.251,25.551 301.369 C 25.743 301.488,26.498 302.804,27.229 304.293 C 27.959 305.782,29.133 307.720,29.837 308.600 C 30.541 309.480,31.451 310.752,31.858 311.427 C 32.266 312.102,33.320 313.700,34.200 314.977 C 35.080 316.255,36.004 317.653,36.253 318.083 C 36.502 318.513,37.267 319.444,37.953 320.152 C 38.639 320.859,39.200 321.588,39.200 321.771 C 39.200 321.953,39.830 322.800,40.600 323.653 C 41.370 324.505,42.000 325.352,42.000 325.536 C 42.000 325.720,42.734 326.641,43.631 327.585 C 44.528 328.528,45.383 329.619,45.531 330.010 C 45.679 330.401,47.150 332.195,48.800 333.997 C 50.450 335.799,52.772 338.336,53.961 339.636 C 55.149 340.936,56.364 342.000,56.661 342.000 C 56.957 342.000,57.200 342.240,57.200 342.534 C 57.200 342.828,58.444 344.223,59.964 345.634 C 61.484 347.045,64.377 349.730,66.392 351.600 C 68.407 353.470,70.506 355.194,71.055 355.431 C 71.605 355.668,72.762 356.613,73.627 357.531 C 74.491 358.449,75.435 359.200,75.724 359.200 C 76.014 359.200,76.768 359.740,77.400 360.400 C 78.032 361.060,78.732 361.600,78.956 361.600 C 79.179 361.600,79.941 362.161,80.648 362.847 C 81.356 363.533,82.287 364.298,82.717 364.547 C 85.076 365.913,88.000 368.043,88.000 368.395 C 88.000 368.618,88.256 368.800,88.569 368.800 C 88.882 368.800,89.647 369.210,90.269 369.710 C 90.891 370.211,91.940 370.881,92.600 371.200 C 93.260 371.519,94.309 372.189,94.931 372.690 C 95.553 373.190,96.273 373.605,96.531 373.611 C 96.789 373.617,97.707 374.157,98.571 374.811 C 99.435 375.465,100.294 376.000,100.479 376.000 C 100.664 376.000,101.529 376.450,102.400 377.000 C 103.271 377.550,104.213 378.006,104.492 378.013 C 104.771 378.021,105.720 378.547,106.600 379.184 C 108.282 380.401,113.554 383.200,114.164 383.200 C 114.360 383.200,115.528 383.671,116.760 384.247 C 121.532 386.479,122.286 386.805,125.000 387.809 C 126.540 388.378,128.520 389.183,129.400 389.598 C 130.280 390.012,131.630 390.474,132.400 390.624 C 133.170 390.774,134.256 391.129,134.814 391.414 C 135.371 391.699,136.541 392.065,137.414 392.229 C 138.286 392.392,139.590 392.858,140.312 393.263 C 141.034 393.668,142.155 394.000,142.804 394.000 C 143.453 394.000,144.662 394.259,145.492 394.576 C 146.321 394.892,148.080 395.362,149.400 395.619 C 150.720 395.876,151.980 396.227,152.200 396.398 C 152.420 396.570,153.320 396.810,154.200 396.932 C 156.878 397.304,158.580 397.685,159.000 398.005 C 159.220 398.173,160.390 398.439,161.600 398.595 C 162.810 398.752,164.880 399.129,166.200 399.434 C 169.335 400.158,233.654 400.273,235.474 399.557 C 236.093 399.314,237.909 398.962,239.508 398.776 C 241.108 398.590,242.638 398.295,242.908 398.121 C 243.687 397.621,246.882 396.837,248.220 396.818 C 248.891 396.808,249.611 396.644,249.820 396.454 C 250.029 396.264,251.783 395.784,253.717 395.388 C 255.652 394.992,257.327 394.517,257.441 394.334 C 257.554 394.150,258.185 394.000,258.843 394.000 C 259.501 394.000,260.784 393.640,261.694 393.200 C 262.605 392.760,263.551 392.400,263.797 392.400 C 264.558 392.400,272.978 389.563,273.380 389.171 C 273.589 388.967,274.163 388.800,274.656 388.800 C 275.149 388.800,275.655 388.634,275.781 388.431 C 275.906 388.228,276.536 387.946,277.180 387.804 C 277.824 387.663,279.577 386.930,281.075 386.175 C 282.574 385.420,284.004 384.802,284.254 384.801 C 284.875 384.800,297.545 378.413,297.824 377.961 C 297.947 377.763,298.375 377.600,298.775 377.600 C 299.175 377.600,299.734 377.321,300.016 376.980 C 300.299 376.639,301.300 376.010,302.241 375.581 C 303.182 375.153,304.063 374.622,304.199 374.402 C 304.335 374.182,305.407 373.547,306.582 372.991 C 307.757 372.435,308.939 371.715,309.208 371.390 C 309.477 371.066,309.915 370.800,310.179 370.800 C 310.444 370.800,311.083 370.350,311.600 369.800 C 312.117 369.250,312.750 368.800,313.008 368.800 C 313.265 368.800,313.802 368.440,314.200 368.000 C 314.598 367.560,315.138 367.200,315.400 367.200 C 315.662 367.200,316.198 366.845,316.591 366.410 C 316.984 365.976,317.687 365.502,318.153 365.357 C 318.945 365.111,319.551 364.655,323.548 361.300 C 324.400 360.585,325.227 360.000,325.385 360.000 C 325.722 360.000,328.080 358.004,333.653 353.000 C 335.858 351.020,337.964 349.244,338.331 349.052 C 339.225 348.588,350.800 337.101,350.800 336.679 C 350.800 336.497,352.465 334.474,354.500 332.183 C 359.213 326.877,360.800 324.973,360.800 324.625 C 360.800 324.472,361.428 323.684,362.197 322.873 C 362.965 322.063,363.600 321.220,363.608 321.000 C 363.616 320.780,364.428 319.734,365.411 318.675 C 366.395 317.616,367.200 316.536,367.200 316.275 C 367.200 316.014,367.966 314.810,368.901 313.600 C 369.836 312.390,370.866 310.860,371.190 310.200 C 371.515 309.540,372.189 308.491,372.690 307.869 C 373.190 307.247,373.600 306.504,373.600 306.218 C 373.600 305.932,373.858 305.484,374.174 305.222 C 374.489 304.960,375.136 303.993,375.611 303.073 C 376.086 302.153,376.782 301.040,377.158 300.600 C 377.534 300.160,378.603 298.233,379.532 296.317 C 380.462 294.401,381.398 292.725,381.612 292.593 C 382.007 292.349,383.600 289.101,383.600 288.540 C 383.600 288.373,384.408 286.577,385.395 284.548 C 386.382 282.519,387.574 279.811,388.044 278.529 C 388.514 277.248,389.057 276.029,389.249 275.820 C 389.442 275.611,389.600 275.037,389.600 274.544 C 389.600 274.051,389.766 273.545,389.969 273.419 C 390.172 273.294,390.459 272.641,390.607 271.968 C 390.755 271.296,391.127 270.263,391.436 269.673 C 391.744 269.083,392.099 267.970,392.226 267.200 C 392.352 266.430,392.781 265.170,393.179 264.400 C 393.577 263.630,394.030 262.280,394.187 261.400 C 394.343 260.520,394.606 259.620,394.770 259.400 C 394.934 259.180,395.290 257.968,395.561 256.707 C 395.832 255.446,396.222 254.310,396.427 254.183 C 396.632 254.056,396.800 253.372,396.800 252.663 C 396.800 251.953,397.152 250.370,397.583 249.144 C 398.014 247.919,398.556 245.725,398.789 244.268 C 399.022 242.812,399.389 241.154,399.606 240.584 C 399.855 239.929,400.000 224.902,400.000 199.740 C 400.000 156.797,400.131 159.833,397.921 151.600 C 397.478 149.950,397.033 147.970,396.933 147.200 C 396.832 146.430,396.584 145.440,396.380 145.000 C 396.177 144.560,395.718 143.120,395.361 141.800 C 393.981 136.701,393.649 135.656,393.035 134.468 C 392.686 133.792,392.400 132.965,392.400 132.629 C 392.400 132.293,391.758 130.260,390.972 128.109 C 389.471 123.998,389.271 123.489,388.241 121.140 C 387.888 120.336,387.600 119.554,387.600 119.402 C 387.600 119.250,386.610 117.096,385.400 114.617 C 384.190 112.138,383.200 109.837,383.200 109.504 C 383.200 109.171,382.938 108.680,382.617 108.414 C 382.297 108.149,381.273 106.371,380.342 104.465 C 379.411 102.559,378.384 100.684,378.060 100.297 C 377.358 99.459,376.734 98.375,375.675 96.152 C 375.244 95.245,374.706 94.389,374.480 94.249 C 374.254 94.110,373.678 93.187,373.199 92.198 C 372.720 91.209,372.165 90.400,371.964 90.400 C 371.764 90.400,371.600 90.152,371.600 89.849 C 371.600 89.546,371.333 89.076,371.006 88.805 C 370.680 88.534,370.005 87.478,369.506 86.459 C 369.008 85.440,368.105 84.184,367.500 83.668 C 366.895 83.151,366.400 82.475,366.400 82.166 C 366.400 81.856,365.770 80.905,365.000 80.053 C 364.230 79.200,363.600 78.353,363.600 78.171 C 363.600 77.988,363.039 77.259,362.353 76.552 C 361.667 75.844,360.902 74.909,360.653 74.473 C 360.212 73.701,356.475 69.177,354.019 66.442 C 353.349 65.695,352.800 64.879,352.800 64.630 C 352.800 63.925,335.839 47.200,335.124 47.200 C 334.775 47.200,334.065 46.662,333.545 46.004 C 333.025 45.346,332.436 44.806,332.234 44.804 C 332.033 44.802,330.654 43.720,329.169 42.400 C 327.683 41.080,326.353 40.000,326.212 40.000 C 326.072 40.000,325.381 39.461,324.678 38.802 C 323.975 38.143,323.285 37.603,323.144 37.602 C 323.003 37.601,322.193 36.974,321.344 36.209 C 320.495 35.444,319.639 34.814,319.441 34.809 C 319.244 34.804,318.344 34.202,317.441 33.471 C 316.539 32.739,315.530 32.019,315.200 31.871 C 314.870 31.722,313.790 30.971,312.800 30.202 C 311.810 29.432,310.612 28.634,310.139 28.426 C 309.665 28.219,309.153 27.848,309.001 27.602 C 308.849 27.356,307.780 26.723,306.626 26.195 C 305.471 25.667,304.296 24.957,304.014 24.617 C 303.733 24.278,303.341 24.000,303.143 24.000 C 302.946 24.000,302.071 23.550,301.200 23.000 C 300.329 22.450,299.344 22.000,299.011 22.000 C 298.679 22.000,298.182 21.640,297.907 21.200 C 297.632 20.760,297.177 20.400,296.896 20.400 C 296.614 20.400,295.713 19.985,294.892 19.478 C 292.671 18.106,285.584 14.800,284.863 14.800 C 284.653 14.800,283.455 14.260,282.200 13.600 C 280.945 12.940,279.712 12.399,279.459 12.398 C 279.207 12.397,278.114 11.947,277.032 11.398 C 275.950 10.849,274.822 10.400,274.527 10.400 C 274.231 10.400,273.677 10.241,273.295 10.047 C 271.879 9.328,268.156 8.005,266.800 7.740 C 266.030 7.589,264.810 7.136,264.088 6.733 C 263.366 6.330,262.374 6.000,261.882 6.000 C 261.391 6.000,260.004 5.640,258.800 5.200 C 257.596 4.760,256.249 4.399,255.806 4.398 C 255.363 4.396,254.484 4.126,253.854 3.798 C 253.224 3.469,251.930 3.200,250.978 3.200 C 250.026 3.200,249.136 3.020,249.000 2.800 C 248.864 2.580,248.349 2.400,247.856 2.400 C 247.363 2.400,246.781 2.221,246.562 2.002 C 246.344 1.784,245.003 1.487,243.582 1.342 C 242.162 1.197,240.302 0.836,239.450 0.539 C 237.568 -0.115,164.478 -0.221,162.856 0.429 M219.200 16.644 C 361.474 30.701,433.938 195.860,347.998 310.200 C 263.626 422.455,88.514 401.813,32.410 273.000 C -23.449 144.750,79.921 2.882,219.200 16.644 M191.636 47.633 C 101.135 53.385,35.883 135.941,51.019 225.538 C 65.142 309.133,146.843 365.566,230.000 349.163 C 313.150 332.762,366.935 252.502,350.365 169.548 C 335.515 95.206,267.313 42.822,191.636 47.633 M217.600 62.594 C 325.446 76.331,376.605 203.220,307.983 286.771 C 305.737 289.505,303.645 292.353,303.333 293.100 C 303.020 293.849,302.207 294.758,301.519 295.129 C 300.833 295.498,298.186 297.728,295.636 300.084 C 206.649 382.303,63.423 320.452,63.417 199.800 C 63.413 116.779,135.984 52.198,217.600 62.594 M131.042 112.815 C 128.243 113.653,125.746 117.609,125.137 122.171 C 124.929 123.727,124.508 125.720,124.202 126.600 C 123.896 127.480,123.530 129.460,123.387 131.000 C 123.245 132.540,122.878 134.880,122.571 136.200 C 122.263 137.520,122.009 139.317,122.006 140.194 C 122.002 141.176,121.409 143.095,120.460 145.194 C 118.109 150.394,117.200 153.496,117.200 156.320 C 117.200 159.220,117.091 159.465,112.849 166.136 C 111.148 168.811,109.149 172.080,108.406 173.400 C 107.663 174.720,106.272 176.681,105.315 177.757 C 101.665 181.863,98.400 189.551,98.400 194.042 C 98.400 195.385,98.143 197.501,97.828 198.742 C 97.513 199.984,97.264 202.530,97.274 204.400 C 97.288 207.094,97.074 208.401,96.246 210.692 C 95.671 212.283,95.200 213.856,95.200 214.186 C 95.200 214.517,94.750 216.341,94.200 218.239 C 92.498 224.113,92.474 224.081,102.211 229.030 C 110.339 233.162,110.694 233.300,132.200 240.661 C 142.568 244.210,142.059 244.172,144.339 241.583 C 151.544 233.402,154.606 232.316,165.600 234.041 C 179.063 236.155,185.777 240.508,194.800 252.974 C 204.249 266.027,205.051 266.719,213.800 269.366 C 215.780 269.965,218.030 270.705,218.800 271.011 C 219.570 271.316,220.830 271.741,221.600 271.955 C 222.370 272.170,224.530 272.873,226.400 273.518 C 228.270 274.163,230.790 275.001,232.000 275.380 C 233.210 275.759,235.280 276.473,236.600 276.967 C 237.920 277.461,240.350 278.282,242.000 278.791 C 243.650 279.301,245.843 280.051,246.874 280.459 C 247.905 280.866,249.306 281.200,249.987 281.200 C 250.668 281.200,252.345 281.582,253.713 282.049 C 257.650 283.393,285.181 282.697,289.235 281.151 C 290.813 280.550,294.173 276.880,295.560 274.244 C 299.094 267.527,295.544 256.429,288.764 252.996 C 286.180 251.688,284.859 250.400,283.859 248.216 C 282.478 245.201,280.737 242.760,277.591 239.431 C 276.120 237.874,274.695 236.179,274.425 235.664 C 273.245 233.416,264.417 224.002,251.552 211.272 C 239.563 199.409,237.642 197.345,237.406 196.072 C 237.107 194.462,237.026 194.314,232.034 186.261 C 229.309 181.865,228.298 180.567,227.138 179.972 C 225.095 178.925,224.151 177.562,223.472 174.682 C 223.151 173.317,222.399 170.400,221.803 168.200 C 221.206 166.000,220.486 163.030,220.201 161.600 C 217.639 148.715,216.908 146.434,214.956 145.240 C 212.894 143.978,212.400 143.010,212.400 140.235 C 212.400 138.678,212.174 137.821,211.558 137.037 C 210.678 135.919,204.938 132.810,203.709 132.786 C 203.319 132.779,202.280 132.425,201.400 132.000 C 200.520 131.575,199.491 131.221,199.114 131.214 C 198.736 131.206,197.836 130.943,197.114 130.630 C 195.030 129.725,192.000 128.780,189.400 128.223 C 186.860 127.679,183.266 126.616,181.600 125.915 C 181.050 125.684,179.430 125.269,178.000 124.992 C 176.570 124.716,173.870 123.936,172.000 123.259 C 170.130 122.582,168.199 122.021,167.709 122.014 C 167.218 122.006,164.671 121.280,162.048 120.400 C 159.425 119.520,156.856 118.799,156.340 118.798 C 155.823 118.797,153.330 118.078,150.800 117.200 C 148.270 116.322,145.777 115.603,145.260 115.602 C 144.744 115.601,142.175 114.880,139.552 114.000 C 134.762 112.393,133.186 112.174,131.042 112.815 " stroke="none" fill="#fbfaf9" fill-rule="evenodd"></path><path id="path1" d="M190.765 16.005 C 89.222 21.472,10.912 109.791,17.566 211.345 C 25.067 325.839,133.952 405.615,245.262 378.170 C 333.360 356.448,392.700 272.898,384.185 182.568 C 374.900 84.076,289.670 10.681,190.765 16.005 M217.000 17.225 C 334.730 27.190,412.348 145.990,374.549 258.363 C 338.399 365.831,212.659 414.848,113.134 360.269 C 10.880 304.193,-13.575 168.500,62.602 79.880 C 95.744 41.324,140.298 19.913,194.200 16.638 C 197.866 16.415,211.612 16.769,217.000 17.225 M189.600 32.665 C 157.975 35.765,129.174 45.646,107.800 60.731 C 81.479 79.306,64.115 99.126,51.144 125.400 C 15.654 197.289,36.431 285.222,100.198 333.011 C 122.304 349.578,143.407 358.756,171.800 364.154 C 199.628 369.445,230.951 366.714,259.116 356.541 C 324.293 333.000,368.197 269.816,368.165 199.600 C 368.126 112.520,303.034 41.421,215.636 32.994 C 210.133 32.464,193.766 32.257,189.600 32.665 M210.000 47.615 C 301.782 53.334,367.519 137.482,350.763 227.800 C 336.620 304.030,265.625 358.142,188.600 351.401 C 99.071 343.565,36.063 262.193,51.011 173.709 C 63.835 97.798,133.148 42.826,210.000 47.615 M190.000 62.013 C 102.243 70.317,44.988 153.111,68.437 237.800 C 72.233 251.510,80.730 268.906,89.340 280.597 C 139.070 348.120,233.947 357.082,295.636 300.084 C 298.186 297.728,300.833 295.498,301.519 295.129 C 302.207 294.758,303.020 293.849,303.333 293.100 C 303.645 292.353,305.737 289.505,307.983 286.771 C 355.851 228.489,347.440 141.968,289.200 93.559 C 261.746 70.739,224.145 58.782,190.000 62.013 M219.000 63.608 C 326.525 78.687,375.961 206.633,305.779 288.200 C 304.643 289.520,303.317 291.380,302.832 292.333 C 302.335 293.310,301.407 294.357,300.705 294.733 C 300.021 295.100,297.403 297.326,294.888 299.679 C 208.833 380.216,66.806 320.961,64.120 203.400 C 62.184 118.716,136.118 51.985,219.000 63.608 M128.553 113.295 C 126.695 114.926,124.405 119.596,124.387 121.789 C 124.380 122.675,124.026 124.390,123.600 125.600 C 123.174 126.810,122.817 128.610,122.807 129.600 C 122.796 130.590,122.430 133.092,121.994 135.161 C 121.557 137.229,121.200 139.590,121.200 140.408 C 121.200 141.314,120.663 142.943,119.825 144.580 C 119.068 146.058,118.326 147.836,118.176 148.533 C 118.026 149.230,117.632 150.332,117.299 150.982 C 116.967 151.632,116.568 153.792,116.414 155.782 L 116.133 159.400 112.228 165.591 C 110.080 168.997,107.990 172.436,107.582 173.235 C 107.175 174.033,105.932 175.747,104.821 177.043 C 100.996 181.503,97.600 189.483,97.600 194.009 C 97.600 195.371,97.343 197.501,97.028 198.742 C 96.713 199.984,96.469 202.530,96.485 204.400 C 96.507 206.937,96.309 208.308,95.706 209.800 C 95.261 210.900,94.774 212.538,94.624 213.441 C 94.473 214.343,93.911 216.503,93.375 218.241 C 91.557 224.131,92.007 224.837,100.126 228.846 C 102.781 230.157,105.504 231.566,106.177 231.978 C 107.916 233.042,119.347 237.226,130.200 240.772 C 134.550 242.193,136.855 242.991,138.652 243.699 C 141.600 244.860,143.175 244.474,145.094 242.117 C 148.734 237.648,149.415 237.057,152.718 235.505 L 156.035 233.945 160.718 234.385 C 177.476 235.958,184.496 239.950,194.161 253.401 C 204.395 267.645,204.021 267.382,221.631 272.741 C 222.384 272.970,226.150 274.259,230.000 275.606 C 233.850 276.953,237.720 278.249,238.600 278.486 C 240.064 278.881,241.813 279.459,245.600 280.801 C 246.370 281.074,247.900 281.468,249.000 281.677 C 250.100 281.885,251.540 282.242,252.200 282.468 C 258.108 284.494,286.266 283.684,290.260 281.373 C 301.244 275.020,299.904 258.777,287.789 251.400 C 286.705 250.740,285.548 249.660,285.218 249.000 C 283.412 245.391,280.734 241.519,278.567 239.383 C 277.218 238.054,275.632 236.202,275.043 235.268 C 272.511 231.258,263.771 221.969,248.600 207.167 C 238.667 197.476,238.038 196.773,238.014 195.351 C 238.006 194.885,236.801 192.545,235.335 190.151 C 233.870 187.758,231.885 184.513,230.925 182.939 C 229.547 180.680,228.820 179.910,227.466 179.273 C 225.655 178.422,224.784 177.028,224.046 173.800 C 223.845 172.920,223.200 170.400,222.614 168.200 C 222.027 166.000,221.186 162.490,220.745 160.400 C 218.233 148.510,217.511 145.983,216.402 145.200 C 213.553 143.190,213.452 143.027,213.178 140.039 C 212.769 135.582,210.253 133.835,199.600 130.612 C 197.407 129.949,195.634 129.342,192.992 128.352 C 191.888 127.939,190.594 127.600,190.117 127.600 C 189.153 127.600,183.334 125.870,181.286 124.974 C 180.564 124.658,179.484 124.400,178.886 124.400 C 177.809 124.400,174.331 123.350,170.726 121.935 C 169.695 121.531,168.372 121.200,167.786 121.200 C 167.200 121.200,164.575 120.480,161.952 119.600 C 159.329 118.720,156.809 118.000,156.352 118.000 C 155.895 118.000,153.375 117.280,150.752 116.400 C 148.129 115.520,145.619 114.800,145.174 114.800 C 144.729 114.800,142.530 114.170,140.288 113.400 C 134.549 111.429,130.717 111.395,128.553 113.295 M139.552 114.000 C 142.175 114.880,144.744 115.601,145.260 115.602 C 145.777 115.603,148.270 116.322,150.800 117.200 C 153.330 118.078,155.823 118.797,156.340 118.798 C 156.856 118.799,159.425 119.520,162.048 120.400 C 164.671 121.280,167.218 122.006,167.709 122.014 C 168.199 122.021,170.130 122.582,172.000 123.259 C 173.870 123.936,176.570 124.716,178.000 124.992 C 179.430 125.269,181.050 125.684,181.600 125.915 C 183.266 126.616,186.860 127.679,189.400 128.223 C 192.000 128.780,195.030 129.725,197.114 130.630 C 197.836 130.943,198.736 131.206,199.114 131.214 C 199.491 131.221,200.520 131.575,201.400 132.000 C 202.280 132.425,203.319 132.779,203.709 132.786 C 204.938 132.810,210.678 135.919,211.558 137.037 C 212.174 137.821,212.400 138.678,212.400 140.235 C 212.400 143.010,212.894 143.978,214.956 145.240 C 216.908 146.434,217.639 148.715,220.201 161.600 C 220.486 163.030,221.206 166.000,221.803 168.200 C 222.399 170.400,223.151 173.317,223.472 174.682 C 224.151 177.562,225.095 178.925,227.138 179.972 C 228.298 180.567,229.309 181.865,232.034 186.261 C 237.026 194.314,237.107 194.462,237.406 196.072 C 237.642 197.345,239.563 199.409,251.552 211.272 C 264.417 224.002,273.245 233.416,274.425 235.664 C 274.695 236.179,276.120 237.874,277.591 239.431 C 280.737 242.760,282.478 245.201,283.859 248.216 C 284.859 250.400,286.180 251.688,288.764 252.996 C 295.544 256.429,299.094 267.527,295.560 274.244 C 294.173 276.880,290.813 280.550,289.235 281.151 C 285.181 282.697,257.650 283.393,253.713 282.049 C 252.345 281.582,250.668 281.200,249.987 281.200 C 249.306 281.200,247.905 280.866,246.874 280.459 C 245.843 280.051,243.650 279.301,242.000 278.791 C 240.350 278.282,237.920 277.461,236.600 276.967 C 235.280 276.473,233.210 275.759,232.000 275.380 C 230.790 275.001,228.270 274.163,226.400 273.518 C 224.530 272.873,222.370 272.170,221.600 271.955 C 220.830 271.741,219.570 271.316,218.800 271.011 C 218.030 270.705,215.780 269.965,213.800 269.366 C 205.051 266.719,204.249 266.027,194.800 252.974 C 185.777 240.508,179.063 236.155,165.600 234.041 C 154.606 232.316,151.544 233.402,144.339 241.583 C 142.059 244.172,142.568 244.210,132.200 240.661 C 110.694 233.300,110.339 233.162,102.211 229.030 C 92.474 224.081,92.498 224.113,94.200 218.239 C 94.750 216.341,95.200 214.517,95.200 214.186 C 95.200 213.856,95.671 212.283,96.246 210.692 C 97.074 208.401,97.288 207.094,97.274 204.400 C 97.264 202.530,97.513 199.984,97.828 198.742 C 98.143 197.501,98.400 195.385,98.400 194.042 C 98.400 189.551,101.665 181.863,105.315 177.757 C 106.272 176.681,107.663 174.720,108.406 173.400 C 109.149 172.080,111.148 168.811,112.849 166.136 C 117.091 159.465,117.200 159.220,117.200 156.320 C 117.200 153.496,118.109 150.394,120.460 145.194 C 121.409 143.095,122.002 141.176,122.006 140.194 C 122.009 139.317,122.263 137.520,122.571 136.200 C 122.878 134.880,123.245 132.540,123.387 131.000 C 123.530 129.460,123.896 127.480,124.202 126.600 C 124.508 125.720,124.929 123.727,125.137 122.171 C 126.316 113.348,130.515 110.968,139.552 114.000 " stroke="none" fill="#fb8606" fill-rule="evenodd"></path><path id="path2" d="M194.200 16.638 C 120.032 21.144,59.561 63.057,32.086 129.000 C -18.940 251.466,73.820 386.598,206.200 382.649 C 338.995 378.687,423.617 239.351,365.833 119.800 C 334.480 54.933,263.739 12.413,194.200 16.638 M215.636 32.994 C 328.382 43.865,397.391 156.562,356.165 262.492 C 338.246 308.536,295.529 347.081,248.116 359.988 C 215.503 368.866,190.604 369.205,158.800 361.203 C 56.847 335.552,4.260 220.369,51.144 125.400 C 64.115 99.126,81.479 79.306,107.800 60.731 C 129.174 45.646,157.975 35.765,189.600 32.665 C 193.766 32.257,210.133 32.464,215.636 32.994 M190.400 62.802 C 85.886 71.436,29.276 188.079,87.027 275.800 C 133.237 345.990,233.141 357.467,294.888 299.679 C 297.403 297.326,300.021 295.100,300.705 294.733 C 301.407 294.357,302.335 293.310,302.832 292.333 C 303.317 291.380,304.643 289.520,305.779 288.200 C 340.538 247.803,348.105 188.860,324.751 140.419 C 300.118 89.324,246.227 58.190,190.400 62.802 M140.288 113.400 C 142.530 114.170,144.729 114.800,145.174 114.800 C 145.619 114.800,148.129 115.520,150.752 116.400 C 153.375 117.280,155.895 118.000,156.352 118.000 C 156.809 118.000,159.329 118.720,161.952 119.600 C 164.575 120.480,167.200 121.200,167.786 121.200 C 168.372 121.200,169.695 121.531,170.726 121.935 C 174.331 123.350,177.809 124.400,178.886 124.400 C 179.484 124.400,180.564 124.658,181.286 124.974 C 183.334 125.870,189.153 127.600,190.117 127.600 C 190.594 127.600,191.888 127.939,192.992 128.352 C 195.634 129.342,197.407 129.949,199.600 130.612 C 210.253 133.835,212.769 135.582,213.178 140.039 C 213.452 143.027,213.553 143.190,216.402 145.200 C 217.511 145.983,218.233 148.510,220.745 160.400 C 221.186 162.490,222.027 166.000,222.614 168.200 C 223.200 170.400,223.845 172.920,224.046 173.800 C 224.784 177.028,225.655 178.422,227.466 179.273 C 228.820 179.910,229.547 180.680,230.925 182.939 C 231.885 184.513,233.870 187.758,235.335 190.151 C 236.801 192.545,238.006 194.885,238.014 195.351 C 238.038 196.773,238.667 197.476,248.600 207.167 C 263.771 221.969,272.511 231.258,275.043 235.268 C 275.632 236.202,277.218 238.054,278.567 239.383 C 280.734 241.519,283.412 245.391,285.218 249.000 C 285.548 249.660,286.705 250.740,287.789 251.400 C 298.410 257.867,301.005 270.093,293.553 278.558 C 289.943 282.660,287.833 283.088,269.400 283.458 C 257.803 283.690,255.355 283.550,252.200 282.468 C 251.540 282.242,250.100 281.885,249.000 281.677 C 247.900 281.468,246.370 281.074,245.600 280.801 C 241.813 279.459,240.064 278.881,238.600 278.486 C 237.720 278.249,233.850 276.953,230.000 275.606 C 226.150 274.259,222.384 272.970,221.631 272.741 C 204.021 267.382,204.395 267.645,194.161 253.401 C 184.496 239.950,177.476 235.958,160.718 234.385 L 156.035 233.945 152.718 235.505 C 149.415 237.057,148.734 237.648,145.094 242.117 C 143.175 244.474,141.600 244.860,138.652 243.699 C 136.855 242.991,134.550 242.193,130.200 240.772 C 119.347 237.226,107.916 233.042,106.177 231.978 C 105.504 231.566,102.781 230.157,100.126 228.846 C 92.007 224.837,91.557 224.131,93.375 218.241 C 93.911 216.503,94.473 214.343,94.624 213.441 C 94.774 212.538,95.261 210.900,95.706 209.800 C 96.309 208.308,96.507 206.937,96.485 204.400 C 96.469 202.530,96.713 199.984,97.028 198.742 C 97.343 197.501,97.600 195.371,97.600 194.009 C 97.600 189.483,100.996 181.503,104.821 177.043 C 105.932 175.747,107.175 174.033,107.582 173.235 C 107.990 172.436,110.080 168.997,112.228 165.591 L 116.133 159.400 116.414 155.782 C 116.568 153.792,116.967 151.632,117.299 150.982 C 117.632 150.332,118.026 149.230,118.176 148.533 C 118.326 147.836,119.068 146.058,119.825 144.580 C 120.663 142.943,121.200 141.314,121.200 140.408 C 121.200 139.590,121.557 137.229,121.994 135.161 C 122.430 133.092,122.796 130.590,122.807 129.600 C 122.817 128.610,123.174 126.810,123.600 125.600 C 124.026 124.390,124.380 122.675,124.387 121.789 C 124.405 119.596,126.695 114.926,128.553 113.295 C 130.717 111.395,134.549 111.429,140.288 113.400 " stroke="none" fill="#040404" fill-rule="evenodd"></path></g></svg>