<svg id="svg" version="1.1" xmlns="http://www.w3.org/2000/svg" xmlns:xlink="http://www.w3.org/1999/xlink" width="400" height="400" viewBox="0, 0, 400,400"><g id="svgg"><path id="path0" d="M189.600 16.809 C 98.116 23.303,26.309 93.569,18.594 184.143 C 9.346 292.718,96.509 385.349,205.400 382.668 C 328.580 379.636,413.795 258.374,374.801 141.608 C 348.594 63.129,271.253 11.013,189.600 16.809 M215.644 33.012 C 293.664 40.772,353.116 96.298,366.170 173.600 C 372.172 209.139,364.966 249.935,347.140 281.334 C 306.747 352.482,223.234 384.006,145.632 357.398 C 79.207 334.622,33.840 270.585,33.840 199.600 C 33.839 135.949,70.457 77.173,127.400 49.425 C 154.082 36.422,187.478 30.211,215.644 33.012 M191.200 62.651 C 104.704 69.019,45.640 153.353,69.029 237.089 C 96.501 335.441,220.492 369.833,294.839 299.722 C 297.391 297.316,300.014 295.126,300.669 294.854 C 301.426 294.541,302.157 293.749,302.676 292.681 C 303.125 291.756,304.642 289.646,306.046 287.991 C 341.147 246.631,348.263 187.406,323.984 138.689 C 299.186 88.928,246.224 58.600,191.200 62.651 M139.600 113.251 C 141.470 113.924,143.990 114.639,145.200 114.841 C 146.410 115.043,148.030 115.459,148.800 115.766 C 151.172 116.711,155.314 117.909,157.094 118.164 C 158.026 118.298,159.376 118.661,160.094 118.970 C 162.150 119.856,166.579 121.200,167.428 121.196 C 168.253 121.192,172.198 122.427,175.274 123.653 C 176.305 124.064,177.628 124.400,178.214 124.400 C 178.800 124.400,181.425 125.120,184.048 126.000 C 186.671 126.880,189.180 127.600,189.622 127.600 C 191.066 127.600,206.046 132.780,208.826 134.241 C 212.566 136.207,212.885 136.646,213.178 140.226 C 213.314 141.886,213.611 143.370,213.839 143.522 C 214.067 143.675,214.912 144.217,215.718 144.728 C 216.818 145.424,217.291 146.073,217.612 147.328 C 217.847 148.247,218.222 149.540,218.446 150.200 C 218.670 150.860,219.094 152.660,219.389 154.200 C 220.231 158.599,221.143 162.806,221.774 165.200 C 222.093 166.410,222.745 168.930,223.223 170.800 C 224.906 177.384,225.219 178.046,227.200 179.197 C 229.112 180.307,230.340 181.956,234.978 189.644 C 236.386 191.978,237.737 194.621,237.978 195.519 C 238.377 196.999,257.470 216.800,259.704 218.050 C 260.790 218.658,273.360 232.847,275.068 235.393 C 276.025 236.819,277.250 238.276,277.790 238.630 C 279.272 239.601,282.973 244.640,284.545 247.828 C 285.812 250.397,286.157 250.772,288.298 251.913 C 299.974 258.137,300.809 276.004,289.691 281.753 C 286.878 283.207,256.428 284.097,253.400 282.813 C 252.740 282.533,251.030 282.072,249.600 281.789 C 247.178 281.310,245.018 280.670,241.600 279.419 C 239.814 278.766,228.962 275.130,224.000 273.523 C 221.910 272.846,219.300 271.970,218.200 271.575 C 217.100 271.180,214.684 270.382,212.830 269.801 C 207.438 268.111,204.789 266.730,202.783 264.562 C 200.981 262.615,200.294 261.720,194.988 254.400 C 184.192 239.508,177.128 235.501,159.400 234.214 L 155.800 233.953 152.600 235.530 C 149.463 237.076,147.890 238.435,145.257 241.873 C 142.968 244.861,142.509 244.852,132.938 241.632 C 111.572 234.443,110.397 233.990,101.658 229.574 C 92.095 224.741,91.725 224.277,93.213 219.000 C 93.647 217.460,94.196 215.300,94.434 214.200 C 94.671 213.100,95.237 211.210,95.691 210.000 C 96.301 208.374,96.531 206.756,96.572 203.800 C 96.603 201.600,96.831 199.170,97.078 198.400 C 97.326 197.630,97.623 195.470,97.738 193.600 C 98.072 188.202,100.800 181.926,104.945 177.023 C 105.885 175.910,107.264 173.920,108.010 172.600 C 108.755 171.280,110.948 167.695,112.882 164.633 C 116.324 159.187,116.400 159.013,116.400 156.600 C 116.400 153.782,117.976 148.409,119.951 144.497 C 120.638 143.136,121.200 141.484,121.200 140.826 C 121.200 140.167,121.559 137.777,121.999 135.514 C 122.438 133.251,122.798 130.674,122.799 129.786 C 122.799 128.899,123.160 127.148,123.600 125.896 C 124.040 124.644,124.400 122.845,124.400 121.899 C 124.400 118.820,127.725 113.109,130.000 112.281 C 131.831 111.615,136.312 112.068,139.600 113.251 " stroke="none" fill="#060505" fill-rule="evenodd"></path><path id="path1" d="M190.400 16.029 C 98.841 20.892,23.770 95.001,17.616 186.600 C 9.202 311.815,124.547 408.377,246.200 377.962 C 311.172 361.718,363.195 309.705,379.387 244.800 C 409.532 123.972,314.898 9.417,190.400 16.029 M217.400 17.191 C 365.792 30.987,436.673 205.993,339.746 319.260 C 252.604 421.093,86.745 396.062,33.212 273.000 C -22.154 145.724,79.616 4.381,217.400 17.191 M186.000 33.023 C 131.780 38.356,84.916 67.951,57.098 114.425 C 42.367 139.036,33.840 170.263,33.840 199.600 C 33.840 290.981,106.795 365.141,198.200 366.674 C 291.843 368.244,368.031 293.627,368.178 200.200 C 368.278 136.260,332.770 78.439,275.914 49.957 C 249.402 36.676,214.909 30.180,186.000 33.023 M217.048 48.219 C 283.077 55.064,337.626 104.777,350.372 169.723 C 353.021 183.219,354.019 205.613,352.471 216.800 C 344.943 271.192,315.043 313.300,267.400 336.605 C 176.857 380.894,67.698 324.828,51.013 225.464 C 34.257 125.684,116.578 37.805,217.048 48.219 M192.000 61.831 C 191.230 61.916,188.710 62.183,186.400 62.422 C 91.463 72.255,35.078 174.775,77.404 260.600 C 118.799 344.536,227.669 363.589,296.821 299.000 C 298.705 297.240,300.814 295.498,301.506 295.129 C 302.215 294.750,303.016 293.858,303.338 293.087 C 303.653 292.333,304.924 290.522,306.162 289.062 C 377.193 205.331,326.888 76.684,217.600 62.581 C 212.918 61.977,195.314 61.461,192.000 61.831 M220.477 63.755 C 326.974 79.574,375.346 206.333,306.046 287.991 C 304.642 289.646,303.125 291.756,302.676 292.681 C 302.157 293.749,301.426 294.541,300.669 294.854 C 300.014 295.126,297.391 297.316,294.839 299.722 C 207.691 381.905,64.085 319.435,64.215 199.400 C 64.305 115.807,138.326 51.552,220.477 63.755 M130.000 112.281 C 127.725 113.109,124.400 118.820,124.400 121.899 C 124.400 122.845,124.040 124.644,123.600 125.896 C 123.160 127.148,122.799 128.899,122.799 129.786 C 122.798 130.674,122.438 133.251,121.999 135.514 C 121.559 137.777,121.200 140.167,121.200 140.826 C 121.200 141.484,120.638 143.136,119.951 144.497 C 117.976 148.409,116.400 153.782,116.400 156.600 C 116.400 159.013,116.324 159.187,112.882 164.633 C 110.948 167.695,108.755 171.280,108.010 172.600 C 107.264 173.920,105.885 175.910,104.945 177.023 C 100.800 181.926,98.072 188.202,97.738 193.600 C 97.623 195.470,97.326 197.630,97.078 198.400 C 96.831 199.170,96.603 201.600,96.572 203.800 C 96.531 206.756,96.301 208.374,95.691 210.000 C 95.237 211.210,94.671 213.100,94.434 214.200 C 94.196 215.300,93.647 217.460,93.213 219.000 C 91.725 224.277,92.095 224.741,101.658 229.574 C 110.397 233.990,111.572 234.443,132.938 241.632 C 142.509 244.852,142.968 244.861,145.257 241.873 C 147.890 238.435,149.463 237.076,152.600 235.530 L 155.800 233.953 159.400 234.214 C 177.128 235.501,184.192 239.508,194.988 254.400 C 200.294 261.720,200.981 262.615,202.783 264.562 C 204.789 266.730,207.438 268.111,212.830 269.801 C 214.684 270.382,217.100 271.180,218.200 271.575 C 219.300 271.970,221.910 272.846,224.000 273.523 C 228.962 275.130,239.814 278.766,241.600 279.419 C 245.018 280.670,247.178 281.310,249.600 281.789 C 251.030 282.072,252.740 282.533,253.400 282.813 C 256.428 284.097,286.878 283.207,289.691 281.753 C 300.809 276.004,299.974 258.137,288.298 251.913 C 286.157 250.772,285.812 250.397,284.545 247.828 C 282.973 244.640,279.272 239.601,277.790 238.630 C 277.250 238.276,276.025 236.819,275.068 235.393 C 273.360 232.847,260.790 218.658,259.704 218.050 C 257.470 216.800,238.377 196.999,237.978 195.519 C 237.737 194.621,236.386 191.978,234.978 189.644 C 230.340 181.956,229.112 180.307,227.200 179.197 C 225.219 178.046,224.906 177.384,223.223 170.800 C 222.745 168.930,222.093 166.410,221.774 165.200 C 221.143 162.806,220.231 158.599,219.389 154.200 C 219.094 152.660,218.670 150.860,218.446 150.200 C 218.222 149.540,217.847 148.247,217.612 147.328 C 217.291 146.073,216.818 145.424,215.718 144.728 C 214.912 144.217,214.067 143.675,213.839 143.522 C 213.611 143.370,213.314 141.886,213.178 140.226 C 212.885 136.646,212.566 136.207,208.826 134.241 C 206.046 132.780,191.066 127.600,189.622 127.600 C 189.180 127.600,186.671 126.880,184.048 126.000 C 181.425 125.120,178.800 124.400,178.214 124.400 C 177.628 124.400,176.305 124.064,175.274 123.653 C 172.198 122.427,168.253 121.192,167.428 121.196 C 166.579 121.200,162.150 119.856,160.094 118.970 C 159.376 118.661,158.026 118.298,157.094 118.164 C 155.314 117.909,151.172 116.711,148.800 115.766 C 148.030 115.459,146.410 115.043,145.200 114.841 C 143.990 114.639,141.470 113.924,139.600 113.251 C 136.312 112.068,131.831 111.615,130.000 112.281 M137.692 113.346 C 140.174 114.373,144.203 115.600,145.091 115.600 C 145.582 115.600,148.129 116.320,150.752 117.200 C 153.375 118.080,156.000 118.800,156.586 118.800 C 157.172 118.800,158.495 119.132,159.526 119.537 C 162.751 120.805,165.731 121.727,167.600 122.035 C 169.461 122.343,172.352 123.233,174.817 124.258 C 175.596 124.581,177.216 125.002,178.417 125.192 C 180.659 125.546,183.594 126.423,185.914 127.430 C 186.636 127.743,187.682 128.000,188.237 128.000 C 189.669 128.000,205.463 133.317,208.330 134.764 C 211.542 136.386,212.400 137.540,212.400 140.235 C 212.400 142.995,212.942 144.107,214.792 145.147 C 215.632 145.620,216.478 146.484,216.700 147.098 C 217.396 149.022,218.335 152.526,218.764 154.800 C 220.108 161.931,223.537 175.747,224.474 177.803 C 224.754 178.418,225.764 179.275,226.865 179.833 C 227.914 180.364,228.983 181.204,229.243 181.699 C 229.502 182.195,231.338 185.199,233.322 188.377 C 235.398 191.701,237.083 194.873,237.291 195.848 C 237.618 197.383,238.901 198.775,250.942 210.671 C 264.585 224.149,271.343 231.337,274.006 235.200 C 274.840 236.410,276.273 238.120,277.190 239.000 C 279.536 241.251,282.608 245.484,283.827 248.148 C 284.855 250.391,286.163 251.679,288.737 252.982 C 295.346 256.327,298.996 267.309,295.700 273.929 C 294.398 276.545,290.861 280.524,289.303 281.128 C 285.296 282.681,257.611 283.399,253.814 282.049 C 252.501 281.582,250.860 281.200,250.167 281.200 C 249.474 281.200,248.028 280.866,246.953 280.457 C 243.499 279.143,241.035 278.315,239.600 277.989 C 238.830 277.813,236.760 277.134,235.000 276.480 C 231.670 275.241,229.060 274.348,226.000 273.400 C 222.979 272.464,220.271 271.559,218.800 270.993 C 218.030 270.698,215.780 269.961,213.800 269.357 C 204.916 266.647,204.181 266.014,194.858 253.038 C 184.918 239.205,177.781 235.149,160.591 233.564 L 155.782 233.121 152.305 234.773 C 149.513 236.100,148.452 236.868,146.914 238.679 C 141.806 244.696,143.558 244.581,129.800 239.805 C 124.300 237.895,118.810 236.013,117.600 235.622 C 110.821 233.429,96.495 226.590,94.300 224.499 C 92.949 223.211,92.939 222.591,94.200 218.239 C 94.750 216.341,95.200 214.517,95.200 214.186 C 95.200 213.856,95.676 212.283,96.258 210.692 C 97.108 208.366,97.309 207.135,97.283 204.400 C 97.265 202.525,97.508 200.115,97.825 199.027 C 98.141 197.942,98.400 195.827,98.400 194.327 C 98.400 189.617,101.631 181.902,105.361 177.706 C 106.293 176.658,107.663 174.720,108.406 173.400 C 109.149 172.080,111.148 168.811,112.849 166.136 C 117.091 159.465,117.200 159.220,117.200 156.320 C 117.200 153.496,118.109 150.394,120.460 145.194 C 121.307 143.320,122.003 141.160,122.006 140.394 C 122.009 139.627,122.265 137.920,122.575 136.600 C 122.884 135.280,123.253 132.850,123.394 131.200 C 123.535 129.550,123.900 127.480,124.204 126.600 C 124.509 125.720,124.929 123.727,125.137 122.171 C 126.187 114.315,131.317 110.709,137.692 113.346 " stroke="none" fill="#fb8606" fill-rule="evenodd"></path><path id="path2" d="M0.000 200.000 L 0.000 400.000 200.000 400.000 L 400.000 400.000 400.000 200.000 L 400.000 0.000 200.000 0.000 L 0.000 0.000 0.000 200.000 M211.000 16.008 C 351.765 23.676,432.298 181.966,355.346 299.721 C 277.028 419.567,97.948 408.432,35.567 279.837 C -25.383 154.195,71.556 8.411,211.000 16.008 M192.153 47.591 C 83.047 54.389,16.457 169.340,64.819 267.400 C 109.694 358.390,230.428 380.343,304.800 311.037 C 331.643 286.022,347.127 255.413,352.471 216.800 C 354.019 205.613,353.021 183.219,350.372 169.723 C 335.853 95.742,267.401 42.903,192.153 47.591 M217.600 62.581 C 326.888 76.684,377.193 205.331,306.162 289.062 C 304.924 290.522,303.653 292.333,303.338 293.087 C 303.016 293.858,302.215 294.750,301.506 295.129 C 300.814 295.498,298.705 297.240,296.821 299.000 C 227.669 363.589,118.799 344.536,77.404 260.600 C 35.078 174.775,91.463 72.255,186.400 62.422 C 188.710 62.183,191.230 61.916,192.000 61.831 C 195.314 61.461,212.918 61.977,217.600 62.581 M131.042 112.793 C 128.219 113.692,125.745 117.620,125.137 122.171 C 124.929 123.727,124.509 125.720,124.204 126.600 C 123.900 127.480,123.535 129.550,123.394 131.200 C 123.253 132.850,122.884 135.280,122.575 136.600 C 122.265 137.920,122.009 139.627,122.006 140.394 C 122.003 141.160,121.307 143.320,120.460 145.194 C 118.109 150.394,117.200 153.496,117.200 156.320 C 117.200 159.220,117.091 159.465,112.849 166.136 C 111.148 168.811,109.149 172.080,108.406 173.400 C 107.663 174.720,106.293 176.658,105.361 177.706 C 101.631 181.902,98.400 189.617,98.400 194.327 C 98.400 195.827,98.141 197.942,97.825 199.027 C 97.508 200.115,97.265 202.525,97.283 204.400 C 97.309 207.135,97.108 208.366,96.258 210.692 C 95.676 212.283,95.200 213.856,95.200 214.186 C 95.200 214.517,94.750 216.341,94.200 218.239 C 92.939 222.591,92.949 223.211,94.300 224.499 C 96.495 226.590,110.821 233.429,117.600 235.622 C 118.810 236.013,124.300 237.895,129.800 239.805 C 143.558 244.581,141.806 244.696,146.914 238.679 C 148.452 236.868,149.513 236.100,152.305 234.773 L 155.782 233.121 160.591 233.564 C 177.781 235.149,184.918 239.205,194.858 253.038 C 204.181 266.014,204.916 266.647,213.800 269.357 C 215.780 269.961,218.030 270.698,218.800 270.993 C 220.271 271.559,222.979 272.464,226.000 273.400 C 229.060 274.348,231.670 275.241,235.000 276.480 C 236.760 277.134,238.830 277.813,239.600 277.989 C 241.035 278.315,243.499 279.143,246.953 280.457 C 248.028 280.866,249.474 281.200,250.167 281.200 C 250.860 281.200,252.501 281.582,253.814 282.049 C 257.611 283.399,285.296 282.681,289.303 281.128 C 290.861 280.524,294.398 276.545,295.700 273.929 C 298.996 267.309,295.346 256.327,288.737 252.982 C 286.163 251.679,284.855 250.391,283.827 248.148 C 282.608 245.484,279.536 241.251,277.190 239.000 C 276.273 238.120,274.840 236.410,274.006 235.200 C 271.343 231.337,264.585 224.149,250.942 210.671 C 238.901 198.775,237.618 197.383,237.291 195.848 C 237.083 194.873,235.398 191.701,233.322 188.377 C 231.338 185.199,229.502 182.195,229.243 181.699 C 228.983 181.204,227.914 180.364,226.865 179.833 C 225.764 179.275,224.754 178.418,224.474 177.803 C 223.537 175.747,220.108 161.931,218.764 154.800 C 218.335 152.526,217.396 149.022,216.700 147.098 C 216.478 146.484,215.632 145.620,214.792 145.147 C 212.942 144.107,212.400 142.995,212.400 140.235 C 212.400 137.540,211.542 136.386,208.330 134.764 C 205.463 133.317,189.669 128.000,188.237 128.000 C 187.682 128.000,186.636 127.743,185.914 127.430 C 183.594 126.423,180.659 125.546,178.417 125.192 C 177.216 125.002,175.596 124.581,174.817 124.258 C 172.352 123.233,169.461 122.343,167.600 122.035 C 165.731 121.727,162.751 120.805,159.526 119.537 C 158.495 119.132,157.172 118.800,156.586 118.800 C 156.000 118.800,153.375 118.080,150.752 117.200 C 148.129 116.320,145.582 115.600,145.091 115.600 C 144.203 115.600,140.174 114.373,137.692 113.346 C 135.947 112.625,132.478 112.336,131.042 112.793 " stroke="none" fill="#fbfbfb" fill-rule="evenodd"></path></g></svg>