# Blender 4.3.2
# www.blender.org
mtllib EmeraldBeach.mtl
o cube
v 2.250000 0.437500 -1.750000
v 2.250000 0.437500 -2.250000
v 2.250000 -0.000000 -1.750000
v 2.250000 -0.000000 -2.250000
v 0.750000 0.437500 -2.250000
v 0.750000 0.437500 -1.750000
v 0.750000 -0.000000 -2.250000
v 0.750000 -0.000000 -1.750000
vn -0.0000 -0.0000 -1.0000
vn 1.0000 -0.0000 -0.0000
vn -0.0000 -0.0000 1.0000
vn -1.0000 -0.0000 -0.0000
vn -0.0000 1.0000 -0.0000
vn -0.0000 -1.0000 -0.0000
vt 0.000000 0.000000
vt 1.000000 0.000000
vt 1.000000 1.000000
vt 0.000000 1.000000
vt 0.750000 0.750000
vt 1.000000 0.750000
vt 0.750000 1.000000
vt 0.250000 0.000000
vt 0.250000 0.250000
vt 0.000000 0.250000
vt 0.000000 0.750000
vt 0.000000 0.500000
vt 1.000000 0.500000
s 1
usemtl m_cd23891e-75b9-fe0c-6be2-77ca7e0941bf
f 4/1/1 7/2/1 5/3/1 2/4/1
usemtl m_9e7c46b1-deca-2032-3626-336f6c3f0a66
f 3/5/2 4/6/2 2/3/2 1/7/2
f 7/1/4 8/8/4 6/9/4 5/10/4
f 6/11/5 1/5/5 2/7/5 5/4/5
usemtl m_f7e539bb-12dc-1793-d33e-864863d5331a
f 8/1/3 3/2/3 1/3/3 6/4/3
usemtl none
f 7/12/6 4/13/6 3/3/6 8/4/6
o cube.001
v -0.250000 0.437500 -1.000000
v -0.250000 0.437500 -1.500000
v -0.250000 -0.000000 -1.000000
v -0.250000 -0.000000 -1.500000
v -1.250000 0.437500 -1.500000
v -1.250000 0.437500 -1.000000
v -1.250000 -0.000000 -1.500000
v -1.250000 -0.000000 -1.000000
vn -0.0000 -0.0000 -1.0000
vn 1.0000 -0.0000 -0.0000
vn -0.0000 -0.0000 1.0000
vn -1.0000 -0.0000 -0.0000
vn -0.0000 1.0000 -0.0000
vn -0.0000 -1.0000 -0.0000
vt 0.507812 0.000000
vt 1.000000 0.000000
vt 1.000000 0.250000
vt 0.507812 0.250000
vt 0.750000 0.000000
vt 0.750000 0.250000
vt 1.000000 0.500000
vt 0.750000 0.500000
vt 0.250000 0.492188
vt 0.757812 0.492188
vt 0.757812 0.750000
vt 0.250000 0.750000
vt 0.000000 0.500000
vt 1.000000 1.000000
vt 0.000000 1.000000
s 1
usemtl m_9e7c46b1-deca-2032-3626-336f6c3f0a66
f 12/14/7 15/15/7 13/16/7 10/17/7
f 11/18/8 12/15/8 10/16/8 9/19/8
f 16/14/9 11/15/9 9/16/9 14/17/9
f 15/19/10 16/16/10 14/20/10 13/21/10
f 14/22/11 9/23/11 10/24/11 13/25/11
usemtl none
f 15/26/12 12/20/12 11/27/12 16/28/12
o cube.002
v -0.500000 0.437500 -0.515625
v -0.500000 0.437500 -1.000000
v -0.500000 -0.000000 -0.515625
v -0.500000 -0.000000 -1.000000
v -1.000000 0.437500 -1.000000
v -1.000000 0.437500 -0.515625
v -1.000000 -0.000000 -1.000000
v -1.000000 -0.000000 -0.515625
vn -0.0000 -0.0000 -1.0000
vn 1.0000 -0.0000 -0.0000
vn -0.0000 -0.0000 1.0000
vn -1.0000 -0.0000 -0.0000
vn -0.0000 1.0000 -0.0000
vn -0.0000 -1.0000 -0.0000
vt 0.000000 0.562500
vt 0.500000 0.562500
vt 0.500000 1.000000
vt 0.000000 1.000000
vt 0.750000 0.000000
vt 0.998047 0.000000
vt 0.998047 0.250000
vt 0.750000 0.250000
vt 1.000000 0.250000
vt 1.000000 0.500000
vt 0.750000 0.500000
vt 0.751953 0.250000
vt 1.000000 0.492188
vt 0.751953 0.492188
vt 0.250000 0.251953
vt 0.500000 0.251953
vt 0.500000 0.507812
vt 0.250000 0.507812
vt 0.000000 0.515625
vt 0.500000 0.515625
s 1
usemtl none
f 20/29/13 23/30/13 21/31/13 18/32/13
f 23/47/18 20/48/18 19/31/18 24/32/18
usemtl m_9e7c46b1-deca-2032-3626-336f6c3f0a66
f 19/33/14 20/34/14 18/35/14 17/36/14
f 24/36/15 19/37/15 17/38/15 22/39/15
f 23/40/16 24/37/16 22/41/16 21/42/16
f 22/43/17 17/44/17 18/45/17 21/46/17
o cube.003
v 1.515625 0.437500 0.500000
v 1.515625 0.437500 -0.500000
v 1.515625 0.000000 0.500000
v 1.515625 -0.000000 -0.500000
v 1.000000 0.437500 -0.500000
v 1.000000 0.437500 0.500000
v 1.000000 -0.000000 -0.500000
v 1.000000 0.000000 0.500000
vn -0.0000 -0.0000 -1.0000
vn 1.0000 -0.0000 -0.0000
vn -0.0000 -0.0000 1.0000
vn -1.0000 -0.0000 -0.0000
vn -0.0000 1.0000 -0.0000
vn -0.0000 -1.0000 -0.0000
vt 0.500000 0.000000
vt 0.751953 0.000000
vt 0.751953 0.250000
vt 0.500000 0.250000
vt 1.000000 0.000000
vt 1.000000 0.250000
vt 0.507812 0.250000
vt 0.757812 0.250000
vt 0.757812 0.500000
vt 0.507812 0.500000
vt 1.000000 0.500000
vt 0.500000 0.500000
vt 0.000000 0.250000
vt 0.251953 0.250000
vt 0.251953 0.750000
vt 0.000000 0.750000
vt 0.000000 0.000000
vt 0.515625 0.000000
vt 0.515625 1.000000
vt 0.000000 1.000000
s 1
usemtl m_9e7c46b1-deca-2032-3626-336f6c3f0a66
f 28/49/19 31/50/19 29/51/19 26/52/19
f 27/49/20 28/53/20 26/54/20 25/52/20
f 32/55/21 27/56/21 25/57/21 30/58/21
f 31/52/22 32/54/22 30/59/22 29/60/22
f 30/61/23 25/62/23 26/63/23 29/64/23
usemtl none
f 31/65/24 28/66/24 27/67/24 32/68/24
o cube.004
v 1.500000 0.437500 1.750000
v 1.500000 0.437500 1.250000
v 1.500000 0.000000 1.750000
v 1.500000 0.000000 1.250000
v 0.500000 0.437500 1.250000
v 0.500000 0.437500 1.750000
v 0.500000 0.000000 1.250000
v 0.500000 0.000000 1.750000
vn -0.0000 -0.0000 -1.0000
vn 1.0000 -0.0000 -0.0000
vn -0.0000 -0.0000 1.0000
vn -1.0000 -0.0000 -0.0000
vn -0.0000 1.0000 -0.0000
vn -0.0000 -1.0000 -0.0000
vt 0.500000 0.000000
vt 1.000000 0.000000
vt 1.000000 0.250000
vt 0.500000 0.250000
vt 0.750000 0.000000
vt 0.750000 0.250000
vt 1.000000 0.500000
vt 0.500000 0.500000
vt 0.750000 0.500000
vt 0.406250 0.500000
vt 1.000000 0.750000
vt 0.406250 0.750000
vt 0.000000 0.500000
vt 1.000000 1.000000
vt 0.000000 1.000000
s 1
usemtl m_9e7c46b1-deca-2032-3626-336f6c3f0a66
f 36/69/25 39/70/25 37/71/25 34/72/25
f 35/73/26 36/70/26 34/71/26 33/74/26
f 40/72/27 35/71/27 33/75/27 38/76/27
f 39/74/28 40/71/28 38/75/28 37/77/28
f 38/78/29 33/75/29 34/79/29 37/80/29
usemtl none
f 39/81/30 36/75/30 35/82/30 40/83/30
o cube.005
v -0.484375 0.437500 1.250000
v -0.484375 0.437500 0.250000
v -0.484375 0.000000 1.250000
v -0.484375 0.000000 0.250000
v -1.000000 0.437500 0.250000
v -1.000000 0.437500 1.250000
v -1.000000 0.000000 0.250000
v -1.000000 0.000000 1.250000
vn -0.0000 -0.0000 -1.0000
vn 1.0000 -0.0000 -0.0000
vn -0.0000 -0.0000 1.0000
vn -1.0000 -0.0000 -0.0000
vn -0.0000 1.0000 -0.0000
vn -0.0000 -1.0000 -0.0000
vt 0.500000 0.000000
vt 0.751953 0.000000
vt 0.751953 0.250000
vt 0.500000 0.250000
vt 1.000000 0.000000
vt 1.000000 0.250000
vt 0.750000 0.250000
vt 1.000000 0.492188
vt 0.750000 0.492188
vt 1.000000 0.500000
vt 0.500000 0.500000
vt 0.000000 0.250000
vt 0.251953 0.250000
vt 0.251953 0.750000
vt 0.000000 0.750000
vt 0.000000 0.000000
vt 0.515625 0.000000
vt 0.515625 1.000000
vt 0.000000 1.000000
s 1
usemtl m_9e7c46b1-deca-2032-3626-336f6c3f0a66
f 44/84/31 47/85/31 45/86/31 42/87/31
f 43/84/32 44/88/32 42/89/32 41/87/32
f 48/90/33 43/89/33 41/91/33 46/92/33
f 47/87/34 48/89/34 46/93/34 45/94/34
f 46/95/35 41/96/35 42/97/35 45/98/35
usemtl none
f 47/99/36 44/100/36 43/101/36 48/102/36
o plane
v 2.500000 0.000000 2.500000
v 2.500000 -0.000000 -2.500000
v -2.500000 0.000000 2.500000
v -2.500000 -0.000000 -2.500000
vn -0.0000 1.0000 -0.0000
vt 1.000000 0.000000
vt 1.000000 1.000000
vt 0.000000 1.000000
vt 0.000000 0.000000
s 1
usemtl m_c51c39c8-2f69-6682-6528-fc1d338515e9
f 49/103/37 50/104/37 52/105/37 51/106/37
