{"asset":{"version":"2.0","generator":"Blockbench 4.11.2 glTF exporter"},"scenes":[{"nodes":[9],"name":"blockbench_export"}],"scene":0,"nodes":[{"translation":[0,0,-0.5],"name":"plane","mesh":0},{"translation":[0,0,0.25],"name":"cube","mesh":1},{"translation":[1.0125000000000002,0,-0.5],"name":"cube","mesh":2},{"translation":[0.012500000000000178,0,-1.25],"name":"cube","mesh":3},{"translation":[-0.9874999999999998,0,-0.5],"name":"cube","mesh":4},{"translation":[-2,0,-1.25],"name":"cube","mesh":5},{"translation":[-2.0187500000000003,0,0.25],"name":"cube","mesh":6},{"translation":[2.0125,0,0.25],"name":"cube","mesh":7},{"translation":[2.0125,0,-1.2562499999999992],"name":"cube","mesh":8},{"children":[0,1,2,3,4,5,6,7,8]}],"bufferViews":[{"buffer":0,"byteOffset":0,"byteLength":48,"target":34962,"byteStride":12},{"buffer":0,"byteOffset":48,"byteLength":48,"target":34962,"byteStride":12},{"buffer":0,"byteOffset":96,"byteLength":32,"target":34962,"byteStride":8},{"buffer":0,"byteOffset":128,"byteLength":12,"target":34963},{"buffer":0,"byteOffset":140,"byteLength":288,"target":34962,"byteStride":12},{"buffer":0,"byteOffset":428,"byteLength":288,"target":34962,"byteStride":12},{"buffer":0,"byteOffset":716,"byteLength":192,"target":34962,"byteStride":8},{"buffer":0,"byteOffset":908,"byteLength":12,"target":34963},{"buffer":0,"byteOffset":920,"byteLength":12,"target":34963},{"buffer":0,"byteOffset":932,"byteLength":12,"target":34963},{"buffer":0,"byteOffset":944,"byteLength":12,"target":34963},{"buffer":0,"byteOffset":956,"byteLength":12,"target":34963},{"buffer":0,"byteOffset":968,"byteLength":12,"target":34963},{"buffer":0,"byteOffset":980,"byteLength":288,"target":34962,"byteStride":12},{"buffer":0,"byteOffset":1268,"byteLength":288,"target":34962,"byteStride":12},{"buffer":0,"byteOffset":1556,"byteLength":192,"target":34962,"byteStride":8},{"buffer":0,"byteOffset":1748,"byteLength":12,"target":34963},{"buffer":0,"byteOffset":1760,"byteLength":12,"target":34963},{"buffer":0,"byteOffset":1772,"byteLength":12,"target":34963},{"buffer":0,"byteOffset":1784,"byteLength":12,"target":34963},{"buffer":0,"byteOffset":1796,"byteLength":12,"target":34963},{"buffer":0,"byteOffset":1808,"byteLength":12,"target":34963},{"buffer":0,"byteOffset":1820,"byteLength":288,"target":34962,"byteStride":12},{"buffer":0,"byteOffset":2108,"byteLength":288,"target":34962,"byteStride":12},{"buffer":0,"byteOffset":2396,"byteLength":192,"target":34962,"byteStride":8},{"buffer":0,"byteOffset":2588,"byteLength":12,"target":34963},{"buffer":0,"byteOffset":2600,"byteLength":12,"target":34963},{"buffer":0,"byteOffset":2612,"byteLength":12,"target":34963},{"buffer":0,"byteOffset":2624,"byteLength":12,"target":34963},{"buffer":0,"byteOffset":2636,"byteLength":12,"target":34963},{"buffer":0,"byteOffset":2648,"byteLength":12,"target":34963},{"buffer":0,"byteOffset":2660,"byteLength":288,"target":34962,"byteStride":12},{"buffer":0,"byteOffset":2948,"byteLength":288,"target":34962,"byteStride":12},{"buffer":0,"byteOffset":3236,"byteLength":192,"target":34962,"byteStride":8},{"buffer":0,"byteOffset":3428,"byteLength":12,"target":34963},{"buffer":0,"byteOffset":3440,"byteLength":12,"target":34963},{"buffer":0,"byteOffset":3452,"byteLength":12,"target":34963},{"buffer":0,"byteOffset":3464,"byteLength":12,"target":34963},{"buffer":0,"byteOffset":3476,"byteLength":12,"target":34963},{"buffer":0,"byteOffset":3488,"byteLength":12,"target":34963},{"buffer":0,"byteOffset":3500,"byteLength":288,"target":34962,"byteStride":12},{"buffer":0,"byteOffset":3788,"byteLength":288,"target":34962,"byteStride":12},{"buffer":0,"byteOffset":4076,"byteLength":192,"target":34962,"byteStride":8},{"buffer":0,"byteOffset":4268,"byteLength":12,"target":34963},{"buffer":0,"byteOffset":4280,"byteLength":12,"target":34963},{"buffer":0,"byteOffset":4292,"byteLength":12,"target":34963},{"buffer":0,"byteOffset":4304,"byteLength":12,"target":34963},{"buffer":0,"byteOffset":4316,"byteLength":12,"target":34963},{"buffer":0,"byteOffset":4328,"byteLength":12,"target":34963},{"buffer":0,"byteOffset":4340,"byteLength":288,"target":34962,"byteStride":12},{"buffer":0,"byteOffset":4628,"byteLength":288,"target":34962,"byteStride":12},{"buffer":0,"byteOffset":4916,"byteLength":192,"target":34962,"byteStride":8},{"buffer":0,"byteOffset":5108,"byteLength":12,"target":34963},{"buffer":0,"byteOffset":5120,"byteLength":12,"target":34963},{"buffer":0,"byteOffset":5132,"byteLength":12,"target":34963},{"buffer":0,"byteOffset":5144,"byteLength":12,"target":34963},{"buffer":0,"byteOffset":5156,"byteLength":12,"target":34963},{"buffer":0,"byteOffset":5168,"byteLength":12,"target":34963},{"buffer":0,"byteOffset":5180,"byteLength":288,"target":34962,"byteStride":12},{"buffer":0,"byteOffset":5468,"byteLength":288,"target":34962,"byteStride":12},{"buffer":0,"byteOffset":5756,"byteLength":192,"target":34962,"byteStride":8},{"buffer":0,"byteOffset":5948,"byteLength":12,"target":34963},{"buffer":0,"byteOffset":5960,"byteLength":12,"target":34963},{"buffer":0,"byteOffset":5972,"byteLength":12,"target":34963},{"buffer":0,"byteOffset":5984,"byteLength":12,"target":34963},{"buffer":0,"byteOffset":5996,"byteLength":12,"target":34963},{"buffer":0,"byteOffset":6008,"byteLength":12,"target":34963},{"buffer":0,"byteOffset":6020,"byteLength":288,"target":34962,"byteStride":12},{"buffer":0,"byteOffset":6308,"byteLength":288,"target":34962,"byteStride":12},{"buffer":0,"byteOffset":6596,"byteLength":192,"target":34962,"byteStride":8},{"buffer":0,"byteOffset":6788,"byteLength":12,"target":34963},{"buffer":0,"byteOffset":6800,"byteLength":12,"target":34963},{"buffer":0,"byteOffset":6812,"byteLength":12,"target":34963},{"buffer":0,"byteOffset":6824,"byteLength":12,"target":34963},{"buffer":0,"byteOffset":6836,"byteLength":12,"target":34963},{"buffer":0,"byteOffset":6848,"byteLength":12,"target":34963}],"buffers":[{"byteLength":6860,"uri":"data:application/octet-stream;base64,"}],"accessors":[{"bufferView":0,"componentType":5126,"count":4,"max":[3,0,1.5],"min":[-3,0,-1.5],"type":"VEC3"},{"bufferView":1,"componentType":5126,"count":4,"max":[0,1,0],"min":[0,1,0],"type":"VEC3"},{"bufferView":2,"componentType":5126,"count":4,"max":[0.75,0.75],"min":[0,0],"type":"VEC2"},{"bufferView":3,"componentType":5123,"count":6,"max":[3],"min":[0],"type":"SCALAR"},{"bufferView":4,"componentType":5126,"count":24,"max":[0.25,0.375,0.25],"min":[-0.265625,0,-0.25],"type":"VEC3"},{"bufferView":5,"componentType":5126,"count":24,"max":[1,1,1],"min":[-1,-1,-1],"type":"VEC3"},{"bufferView":6,"componentType":5126,"count":24,"max":[0.75390625,0.5],"min":[0,0],"type":"VEC2"},{"bufferView":7,"componentType":5123,"count":6,"max":[3],"min":[0],"type":"SCALAR"},{"bufferView":8,"componentType":5123,"count":6,"max":[7],"min":[4],"type":"SCALAR"},{"bufferView":9,"componentType":5123,"count":6,"max":[11],"min":[8],"type":"SCALAR"},{"bufferView":10,"componentType":5123,"count":6,"max":[15],"min":[12],"type":"SCALAR"},{"bufferView":11,"componentType":5123,"count":6,"max":[19],"min":[16],"type":"SCALAR"},{"bufferView":12,"componentType":5123,"count":6,"max":[23],"min":[20],"type":"SCALAR"},{"bufferView":13,"componentType":5126,"count":24,"max":[0.25,0.375,0.25],"min":[-0.265625,0,-0.25],"type":"VEC3"},{"bufferView":14,"componentType":5126,"count":24,"max":[1,1,1],"min":[-1,-1,-1],"type":"VEC3"},{"bufferView":15,"componentType":5126,"count":24,"max":[0.75390625,0.75],"min":[0,0],"type":"VEC2"},{"bufferView":16,"componentType":5123,"count":6,"max":[3],"min":[0],"type":"SCALAR"},{"bufferView":17,"componentType":5123,"count":6,"max":[7],"min":[4],"type":"SCALAR"},{"bufferView":18,"componentType":5123,"count":6,"max":[11],"min":[8],"type":"SCALAR"},{"bufferView":19,"componentType":5123,"count":6,"max":[15],"min":[12],"type":"SCALAR"},{"bufferView":20,"componentType":5123,"count":6,"max":[19],"min":[16],"type":"SCALAR"},{"bufferView":21,"componentType":5123,"count":6,"max":[23],"min":[20],"type":"SCALAR"},{"bufferView":22,"componentType":5126,"count":24,"max":[0.25,0.375,0.25],"min":[-0.2562499940395355,0,-0.25],"type":"VEC3"},{"bufferView":23,"componentType":5126,"count":24,"max":[1,1,1],"min":[-1,-1,-1],"type":"VEC3"},{"bufferView":24,"componentType":5126,"count":24,"max":[0.75,0.5],"min":[0,0],"type":"VEC2"},{"bufferView":25,"componentType":5123,"count":6,"max":[3],"min":[0],"type":"SCALAR"},{"bufferView":26,"componentType":5123,"count":6,"max":[7],"min":[4],"type":"SCALAR"},{"bufferView":27,"componentType":5123,"count":6,"max":[11],"min":[8],"type":"SCALAR"},{"bufferView":28,"componentType":5123,"count":6,"max":[15],"min":[12],"type":"SCALAR"},{"bufferView":29,"componentType":5123,"count":6,"max":[19],"min":[16],"type":"SCALAR"},{"bufferView":30,"componentType":5123,"count":6,"max":[23],"min":[20],"type":"SCALAR"},{"bufferView":31,"componentType":5126,"count":24,"max":[0.25,0.375,0.25],"min":[-0.2562499940395355,0,-0.25],"type":"VEC3"},{"bufferView":32,"componentType":5126,"count":24,"max":[1,1,1],"min":[-1,-1,-1],"type":"VEC3"},{"bufferView":33,"componentType":5126,"count":24,"max":[0.7515624761581421,0.75],"min":[0,0],"type":"VEC2"},{"bufferView":34,"componentType":5123,"count":6,"max":[3],"min":[0],"type":"SCALAR"},{"bufferView":35,"componentType":5123,"count":6,"max":[7],"min":[4],"type":"SCALAR"},{"bufferView":36,"componentType":5123,"count":6,"max":[11],"min":[8],"type":"SCALAR"},{"bufferView":37,"componentType":5123,"count":6,"max":[15],"min":[12],"type":"SCALAR"},{"bufferView":38,"componentType":5123,"count":6,"max":[19],"min":[16],"type":"SCALAR"},{"bufferView":39,"componentType":5123,"count":6,"max":[23],"min":[20],"type":"SCALAR"},{"bufferView":40,"componentType":5126,"count":24,"max":[0.25,0.375,0.25],"min":[-0.2562499940395355,0,-0.25],"type":"VEC3"},{"bufferView":41,"componentType":5126,"count":24,"max":[1,1,1],"min":[-1,-1,-1],"type":"VEC3"},{"bufferView":42,"componentType":5126,"count":24,"max":[0.75,0.5],"min":[0,0],"type":"VEC2"},{"bufferView":43,"componentType":5123,"count":6,"max":[3],"min":[0],"type":"SCALAR"},{"bufferView":44,"componentType":5123,"count":6,"max":[7],"min":[4],"type":"SCALAR"},{"bufferView":45,"componentType":5123,"count":6,"max":[11],"min":[8],"type":"SCALAR"},{"bufferView":46,"componentType":5123,"count":6,"max":[15],"min":[12],"type":"SCALAR"},{"bufferView":47,"componentType":5123,"count":6,"max":[19],"min":[16],"type":"SCALAR"},{"bufferView":48,"componentType":5123,"count":6,"max":[23],"min":[20],"type":"SCALAR"},{"bufferView":49,"componentType":5126,"count":24,"max":[0.25,0.375,0.25],"min":[-0.2562499940395355,0,-0.25],"type":"VEC3"},{"bufferView":50,"componentType":5126,"count":24,"max":[1,1,1],"min":[-1,-1,-1],"type":"VEC3"},{"bufferView":51,"componentType":5126,"count":24,"max":[0.7515624761581421,0.5],"min":[0,0],"type":"VEC2"},{"bufferView":52,"componentType":5123,"count":6,"max":[3],"min":[0],"type":"SCALAR"},{"bufferView":53,"componentType":5123,"count":6,"max":[7],"min":[4],"type":"SCALAR"},{"bufferView":54,"componentType":5123,"count":6,"max":[11],"min":[8],"type":"SCALAR"},{"bufferView":55,"componentType":5123,"count":6,"max":[15],"min":[12],"type":"SCALAR"},{"bufferView":56,"componentType":5123,"count":6,"max":[19],"min":[16],"type":"SCALAR"},{"bufferView":57,"componentType":5123,"count":6,"max":[23],"min":[20],"type":"SCALAR"},{"bufferView":58,"componentType":5126,"count":24,"max":[0.25,0.375,0.25],"min":[-0.2562499940395355,0,-0.25],"type":"VEC3"},{"bufferView":59,"componentType":5126,"count":24,"max":[1,1,1],"min":[-1,-1,-1],"type":"VEC3"},{"bufferView":60,"componentType":5126,"count":24,"max":[0.7515624761581421,0.5],"min":[0,0],"type":"VEC2"},{"bufferView":61,"componentType":5123,"count":6,"max":[3],"min":[0],"type":"SCALAR"},{"bufferView":62,"componentType":5123,"count":6,"max":[7],"min":[4],"type":"SCALAR"},{"bufferView":63,"componentType":5123,"count":6,"max":[11],"min":[8],"type":"SCALAR"},{"bufferView":64,"componentType":5123,"count":6,"max":[15],"min":[12],"type":"SCALAR"},{"bufferView":65,"componentType":5123,"count":6,"max":[19],"min":[16],"type":"SCALAR"},{"bufferView":66,"componentType":5123,"count":6,"max":[23],"min":[20],"type":"SCALAR"},{"bufferView":67,"componentType":5126,"count":24,"max":[0.25,0.375,0.25],"min":[-0.2562499940395355,0,-0.25],"type":"VEC3"},{"bufferView":68,"componentType":5126,"count":24,"max":[1,1,1],"min":[-1,-1,-1],"type":"VEC3"},{"bufferView":69,"componentType":5126,"count":24,"max":[0.75,0.5],"min":[0,0],"type":"VEC2"},{"bufferView":70,"componentType":5123,"count":6,"max":[3],"min":[0],"type":"SCALAR"},{"bufferView":71,"componentType":5123,"count":6,"max":[7],"min":[4],"type":"SCALAR"},{"bufferView":72,"componentType":5123,"count":6,"max":[11],"min":[8],"type":"SCALAR"},{"bufferView":73,"componentType":5123,"count":6,"max":[15],"min":[12],"type":"SCALAR"},{"bufferView":74,"componentType":5123,"count":6,"max":[19],"min":[16],"type":"SCALAR"},{"bufferView":75,"componentType":5123,"count":6,"max":[23],"min":[20],"type":"SCALAR"}],"materials":[{"pbrMetallicRoughness":{"metallicFactor":0,"roughnessFactor":1,"baseColorTexture":{"index":0}},"alphaMode":"MASK","alphaCutoff":0.05,"doubleSided":true},{"pbrMetallicRoughness":{"metallicFactor":0,"roughnessFactor":1,"baseColorTexture":{"index":1}},"alphaMode":"MASK","alphaCutoff":0.05,"doubleSided":true},{"pbrMetallicRoughness":{"metallicFactor":0,"roughnessFactor":1,"baseColorTexture":{"index":2}},"alphaMode":"MASK","alphaCutoff":0.05,"doubleSided":true},{"pbrMetallicRoughness":{"metallicFactor":0,"roughnessFactor":1,"baseColorTexture":{"index":3}},"alphaMode":"MASK","alphaCutoff":0.05,"doubleSided":true},{"pbrMetallicRoughness":{"metallicFactor":0,"roughnessFactor":1},"alphaMode":"MASK","alphaCutoff":0.05,"doubleSided":true},{"pbrMetallicRoughness":{"metallicFactor":0,"roughnessFactor":1,"baseColorTexture":{"index":4}},"alphaMode":"MASK","alphaCutoff":0.05,"doubleSided":true},{"pbrMetallicRoughness":{"metallicFactor":0,"roughnessFactor":1,"baseColorTexture":{"index":5}},"alphaMode":"MASK","alphaCutoff":0.05,"doubleSided":true},{"pbrMetallicRoughness":{"metallicFactor":0,"roughnessFactor":1,"baseColorTexture":{"index":6}},"alphaMode":"MASK","alphaCutoff":0.05,"doubleSided":true},{"pbrMetallicRoughness":{"metallicFactor":0,"roughnessFactor":1,"baseColorTexture":{"index":7}},"alphaMode":"MASK","alphaCutoff":0.05,"doubleSided":true},{"pbrMetallicRoughness":{"metallicFactor":0,"roughnessFactor":1,"baseColorTexture":{"index":8}},"alphaMode":"MASK","alphaCutoff":0.05,"doubleSided":true},{"pbrMetallicRoughness":{"metallicFactor":0,"roughnessFactor":1,"baseColorTexture":{"index":9}},"alphaMode":"MASK","alphaCutoff":0.05,"doubleSided":true},{"pbrMetallicRoughness":{"metallicFactor":0,"roughnessFactor":1,"baseColorTexture":{"index":10}},"alphaMode":"MASK","alphaCutoff":0.05,"doubleSided":true},{"pbrMetallicRoughness":{"metallicFactor":0,"roughnessFactor":1,"baseColorTexture":{"index":11}},"alphaMode":"MASK","alphaCutoff":0.05,"doubleSided":true},{"pbrMetallicRoughness":{"metallicFactor":0,"roughnessFactor":1,"baseColorTexture":{"index":12}},"alphaMode":"MASK","alphaCutoff":0.05,"doubleSided":true},{"pbrMetallicRoughness":{"metallicFactor":0,"roughnessFactor":1,"baseColorTexture":{"index":13}},"alphaMode":"MASK","alphaCutoff":0.05,"doubleSided":true}],"textures":[{"sampler":0,"source":0,"name":"main.png"},{"sampler":1,"source":1,"name":"wl4.png"},{"sampler":2,"source":2,"name":"wl3.png"},{"sampler":3,"source":3,"name":"am7.png"},{"sampler":4,"source":4,"name":"wl5.png"},{"sampler":5,"source":5,"name":"wl2.png"},{"sampler":6,"source":6,"name":"wl1.png"},{"sampler":7,"source":7,"name":"am5.png"},{"sampler":8,"source":8,"name":"am2.png"},{"sampler":9,"source":9,"name":"am4.png"},{"sampler":10,"source":10,"name":"am1.png"},{"sampler":11,"source":11,"name":"am6.png"},{"sampler":12,"source":12,"name":"am8.png"},{"sampler":13,"source":13,"name":"am3.png"}],"samplers":[{"magFilter":9728,"minFilter":9728,"wrapS":33071,"wrapT":33071},{"magFilter":9728,"minFilter":9728,"wrapS":33071,"wrapT":33071},{"magFilter":9728,"minFilter":9728,"wrapS":33071,"wrapT":33071},{"magFilter":9728,"minFilter":9728,"wrapS":33071,"wrapT":33071},{"magFilter":9728,"minFilter":9728,"wrapS":33071,"wrapT":33071},{"magFilter":9728,"minFilter":9728,"wrapS":33071,"wrapT":33071},{"magFilter":9728,"minFilter":9728,"wrapS":33071,"wrapT":33071},{"magFilter":9728,"minFilter":9728,"wrapS":33071,"wrapT":33071},{"magFilter":9728,"minFilter":9728,"wrapS":33071,"wrapT":33071},{"magFilter":9728,"minFilter":9728,"wrapS":33071,"wrapT":33071},{"magFilter":9728,"minFilter":9728,"wrapS":33071,"wrapT":33071},{"magFilter":9728,"minFilter":9728,"wrapS":33071,"wrapT":33071},{"magFilter":9728,"minFilter":9728,"wrapS":33071,"wrapT":33071},{"magFilter":9728,"minFilter":9728,"wrapS":33071,"wrapT":33071}],"images":[{"mimeType":"image/png","uri":"data:image/png;base64,"},{"mimeType":"image/png","uri":"data:image/png;base64,"},{"mimeType":"image/png","uri":"data:image/png;base64,"},{"mimeType":"image/png","uri":"data:image/png;base64,"},{"mimeType":"image/png","uri":"data:image/png;base64,"},{"mimeType":"image/png","uri":"data:image/png;base64,"},{"mimeType":"image/png","uri":"data:image/png;base64,"},{"mimeType":"image/png","uri":"data:image/png;base64,"},{"mimeType":"image/png","uri":"data:image/png;base64,"},{"mimeType":"image/png","uri":"data:image/png;base64,"},{"mimeType":"image/png","uri":"data:image/png;base64,"},{"mimeType":"image/png","uri":"data:image/png;base64,"},{"mimeType":"image/png","uri":"data:image/png;base64,"},{"mimeType":"image/png","uri":"data:image/png;base64,"}],"meshes":[{"primitives":[{"mode":4,"attributes":{"POSITION":0,"NORMAL":1,"TEXCOORD_0":2},"indices":3,"material":0}]},{"primitives":[{"mode":4,"attributes":{"POSITION":4,"NORMAL":5,"TEXCOORD_0":6},"indices":7,"material":1},{"mode":4,"attributes":{"POSITION":4,"NORMAL":5,"TEXCOORD_0":6},"indices":8,"material":2},{"mode":4,"attributes":{"POSITION":4,"NORMAL":5,"TEXCOORD_0":6},"indices":9,"material":3},{"mode":4,"attributes":{"POSITION":4,"NORMAL":5,"TEXCOORD_0":6},"indices":10,"material":4},{"mode":4,"attributes":{"POSITION":4,"NORMAL":5,"TEXCOORD_0":6},"indices":11,"material":5},{"mode":4,"attributes":{"POSITION":4,"NORMAL":5,"TEXCOORD_0":6},"indices":12,"material":1}]},{"primitives":[{"mode":4,"attributes":{"POSITION":13,"NORMAL":14,"TEXCOORD_0":15},"indices":16,"material":6},{"mode":4,"attributes":{"POSITION":13,"NORMAL":14,"TEXCOORD_0":15},"indices":17,"material":7},{"mode":4,"attributes":{"POSITION":13,"NORMAL":14,"TEXCOORD_0":15},"indices":18,"material":8},{"mode":4,"attributes":{"POSITION":13,"NORMAL":14,"TEXCOORD_0":15},"indices":19,"material":4},{"mode":4,"attributes":{"POSITION":13,"NORMAL":14,"TEXCOORD_0":15},"indices":20,"material":7},{"mode":4,"attributes":{"POSITION":13,"NORMAL":14,"TEXCOORD_0":15},"indices":21,"material":6}]},{"primitives":[{"mode":4,"attributes":{"POSITION":22,"NORMAL":23,"TEXCOORD_0":24},"indices":25,"material":1},{"mode":4,"attributes":{"POSITION":22,"NORMAL":23,"TEXCOORD_0":24},"indices":26,"material":2},{"mode":4,"attributes":{"POSITION":22,"NORMAL":23,"TEXCOORD_0":24},"indices":27,"material":9},{"mode":4,"attributes":{"POSITION":22,"NORMAL":23,"TEXCOORD_0":24},"indices":28,"material":4},{"mode":4,"attributes":{"POSITION":22,"NORMAL":23,"TEXCOORD_0":24},"indices":29,"material":5},{"mode":4,"attributes":{"POSITION":22,"NORMAL":23,"TEXCOORD_0":24},"indices":30,"material":1}]},{"primitives":[{"mode":4,"attributes":{"POSITION":31,"NORMAL":32,"TEXCOORD_0":33},"indices":34,"material":6},{"mode":4,"attributes":{"POSITION":31,"NORMAL":32,"TEXCOORD_0":33},"indices":35,"material":7},{"mode":4,"attributes":{"POSITION":31,"NORMAL":32,"TEXCOORD_0":33},"indices":36,"material":10},{"mode":4,"attributes":{"POSITION":31,"NORMAL":32,"TEXCOORD_0":33},"indices":37,"material":4},{"mode":4,"attributes":{"POSITION":31,"NORMAL":32,"TEXCOORD_0":33},"indices":38,"material":7},{"mode":4,"attributes":{"POSITION":31,"NORMAL":32,"TEXCOORD_0":33},"indices":39,"material":6}]},{"primitives":[{"mode":4,"attributes":{"POSITION":40,"NORMAL":41,"TEXCOORD_0":42},"indices":43,"material":1},{"mode":4,"attributes":{"POSITION":40,"NORMAL":41,"TEXCOORD_0":42},"indices":44,"material":2},{"mode":4,"attributes":{"POSITION":40,"NORMAL":41,"TEXCOORD_0":42},"indices":45,"material":11},{"mode":4,"attributes":{"POSITION":40,"NORMAL":41,"TEXCOORD_0":42},"indices":46,"material":4},{"mode":4,"attributes":{"POSITION":40,"NORMAL":41,"TEXCOORD_0":42},"indices":47,"material":5},{"mode":4,"attributes":{"POSITION":40,"NORMAL":41,"TEXCOORD_0":42},"indices":48,"material":1}]},{"primitives":[{"mode":4,"attributes":{"POSITION":49,"NORMAL":50,"TEXCOORD_0":51},"indices":52,"material":1},{"mode":4,"attributes":{"POSITION":49,"NORMAL":50,"TEXCOORD_0":51},"indices":53,"material":2},{"mode":4,"attributes":{"POSITION":49,"NORMAL":50,"TEXCOORD_0":51},"indices":54,"material":12},{"mode":4,"attributes":{"POSITION":49,"NORMAL":50,"TEXCOORD_0":51},"indices":55,"material":4},{"mode":4,"attributes":{"POSITION":49,"NORMAL":50,"TEXCOORD_0":51},"indices":56,"material":5},{"mode":4,"attributes":{"POSITION":49,"NORMAL":50,"TEXCOORD_0":51},"indices":57,"material":1}]},{"primitives":[{"mode":4,"attributes":{"POSITION":58,"NORMAL":59,"TEXCOORD_0":60},"indices":61,"material":1},{"mode":4,"attributes":{"POSITION":58,"NORMAL":59,"TEXCOORD_0":60},"indices":62,"material":2},{"mode":4,"attributes":{"POSITION":58,"NORMAL":59,"TEXCOORD_0":60},"indices":63,"material":13},{"mode":4,"attributes":{"POSITION":58,"NORMAL":59,"TEXCOORD_0":60},"indices":64,"material":4},{"mode":4,"attributes":{"POSITION":58,"NORMAL":59,"TEXCOORD_0":60},"indices":65,"material":5},{"mode":4,"attributes":{"POSITION":58,"NORMAL":59,"TEXCOORD_0":60},"indices":66,"material":1}]},{"primitives":[{"mode":4,"attributes":{"POSITION":67,"NORMAL":68,"TEXCOORD_0":69},"indices":70,"material":1},{"mode":4,"attributes":{"POSITION":67,"NORMAL":68,"TEXCOORD_0":69},"indices":71,"material":2},{"mode":4,"attributes":{"POSITION":67,"NORMAL":68,"TEXCOORD_0":69},"indices":72,"material":14},{"mode":4,"attributes":{"POSITION":67,"NORMAL":68,"TEXCOORD_0":69},"indices":73,"material":4},{"mode":4,"attributes":{"POSITION":67,"NORMAL":68,"TEXCOORD_0":69},"indices":74,"material":5},{"mode":4,"attributes":{"POSITION":67,"NORMAL":68,"TEXCOORD_0":69},"indices":75,"material":1}]}]}